<?xml version="1.0" encoding="UTF-8"?>
<svg width="800px" height="600px" viewBox="0 0 800 600" version="1.1" xmlns="http://www.w3.org/2000/svg" xmlns:xlink="http://www.w3.org/1999/xlink">
    <!-- Generator: Sketch 51.2 (57519) - http://www.bohemiancoding.com/sketch -->
    <title>teaching-series-default</title>
    <desc>Created with Sketch.</desc>
    <defs></defs>
    <g id="teaching-series-default" stroke="none" stroke-width="1" fill="none" fill-rule="evenodd">
        <rect id="Rectangle" fill="#172B48" fill-rule="nonzero" x="0" y="0" width="800" height="600"></rect>
        <path d="M407.821237,142.042893 L537.550966,214.192664 C542.699051,217.055794 545.891892,222.487924 545.891892,228.38347 L545.891892,371.61653 C545.891892,377.512076 542.699051,382.944206 537.550966,385.807336 L407.821237,457.957107 C402.923574,460.680964 396.968318,460.680964 392.070655,457.957107 L262.340925,385.807336 C257.192841,382.944206 254,377.512076 254,371.61653 L254,228.38347 C254,222.487924 257.192841,217.055794 262.340925,214.192664 L392.070655,142.042893 C396.968318,139.319036 402.923574,139.319036 407.821237,142.042893 Z" id="bg-border" fill="#FFFFFF"></path>
        <g id="icon" transform="translate(265.000000, 152.000000)">
            <path d="M142.284644,2.04702443 L262.284644,68.7136911 C267.046622,71.3592343 270,76.3785434 270,81.8260502 L270,214.17395 C270,219.621457 267.046622,224.640766 262.284644,227.286309 L142.284644,293.952976 C137.754306,296.46983 132.245694,296.46983 127.715356,293.952976 L7.71535603,227.286309 C2.95337825,224.640766 6.39488462e-14,219.621457 6.39488462e-14,214.17395 L0,81.8260502 C-7.99360578e-15,76.3785434 2.95337825,71.3592343 7.71535603,68.7136911 L127.715356,2.04702443 C132.245694,-0.469830051 137.754306,-0.469830051 142.284644,2.04702443 Z" id="bg" fill="#F8C76E"></path>
            <path d="M270,109.483975 L270,214.17395 C270,219.621457 267.046622,224.640766 262.284644,227.286309 L142.284644,293.952976 C137.754306,296.46983 132.245694,296.46983 127.715356,293.952976 L7.71535603,227.286309 C6.5363665,226.631315 5.46824021,225.830814 4.52835074,224.914333 L270,109.483975 Z" id="hill-3" fill="#1B778F"></path>
            <path d="M270,197.421977 L270,214.17395 C270,219.621457 267.046622,224.640766 262.284644,227.286309 L142.284644,293.952976 C137.754306,296.46983 132.245694,296.46983 127.715356,293.952976 L7.71535603,227.286309 C2.95337825,224.640766 3.22737893e-14,219.621457 3.22737893e-14,214.17395 L0,147.380435 L270,197.421977 Z" id="hill-2" fill="#31B5B7"></path>
            <path d="M144.274581,200.673546 L155.924849,110.667855 C181.289458,61.3105408 185.005436,50.1025987 182.213623,54.3379537 C179.421809,58.5892972 167.536475,79.0665751 167.536475,79.0665751 L174.113499,58.8275259 C174.113499,58.8275259 173.462237,60.4775396 165.618109,75.8017223 C177.075172,46.6842563 179.491041,28.9617979 179.627894,27.8737801 L156.901339,93.4554302 C156.901339,93.4554302 159.229461,23.4857349 156.763681,25.5778308 C154.297096,27.6691272 153.544401,110.888497 153.544401,110.888497 L141.557634,201.169989 L139.324505,201.576896 L136.451384,125.804173 C136.451384,125.804173 145.681758,17.5835782 142.72089,14.5737422 C139.773707,11.5463187 134.224696,102.741554 134.224696,102.741554 L112.730628,14.7096445 C112.730628,14.7096445 113.398796,38.2822969 125.061139,78.7603952 C117.799847,60.4943276 116.39589,56.5147887 116.155994,55.8001025 L122.184798,82.7575215 C122.184798,82.7575215 109.236836,54.7112853 106.136699,48.8610913 C103.036562,43.0100979 106.479638,58.0448886 133.385863,125.208601 L136.047264,202.174067 L117.250823,205.602002 L112.320067,161.33303 C112.320067,161.33303 113.227326,83.7783875 110.983732,81.788618 C108.723232,79.7980492 109.528254,145.023156 109.528254,145.023156 L89.6273232,83.4378323 C89.6273232,83.4378323 91.321893,100.190588 101.751748,128.42309 C95.792176,116.178294 94.4904566,113.218022 94.2167494,112.588874 L99.9034195,131.416938 C99.9034195,131.416938 89.2159574,112.095629 86.6978509,108.099302 C84.1805494,104.085388 87.4344453,114.613019 110.093379,161.078013 L114.957317,206.020102" id="grass" fill="#305696"></path>
            <path d="M270,174.874137 L270,214.17395 C270,219.621457 267.046622,224.640766 262.284644,227.286309 L142.284644,293.952976 C137.754306,296.46983 132.245694,296.46983 127.715356,293.952976 L7.71535603,227.286309 C6.24052964,226.466961 4.93918328,225.419922 3.84532503,224.202991 L270,174.874137 Z" id="hill-1" fill="#305696"></path>
        </g>
    </g>
</svg>