<svg width="1280" height="720" viewBox="0 0 1280 720" fill="none" xmlns="http://www.w3.org/2000/svg">
<g id="teaching-series-default">
<rect width="1280" height="720" fill="#172B48"/>
<g id="Layer 1">
<g id="Group">
<path id="Vector" fill-rule="evenodd" clip-rule="evenodd" d="M486.399 328.406C487.412 336.571 489.2 344.622 491.738 352.449C493.342 357.448 495.251 362.344 497.455 367.108C498.875 370.548 499.615 374.23 499.633 377.951C499.647 379.725 499.494 381.496 499.174 383.241C496.806 395.742 496.287 408.523 497.635 421.174C498.978 423.336 500.37 425.482 501.844 427.529C505.125 432.18 508.773 436.562 512.752 440.632C514.39 442.27 516.028 443.793 517.666 445.349C512.971 431.773 510.817 417.449 511.311 403.092C511.856 396.105 513.829 389.304 517.109 383.11C521.286 375.346 527.519 368.881 535.126 364.422C531.27 363.452 527.551 362.005 524.054 360.115C513.424 354.366 503.891 344.391 501.648 333.794C499.615 322.496 499.3 310.955 500.714 299.563C500.992 297.253 501.32 294.944 501.729 292.651C502.139 290.358 502.679 287.999 503.269 285.69C504.672 279.99 506.506 274.405 508.756 268.984C509.689 266.74 510.705 264.529 511.753 262.432C512.801 260.336 514.177 257.699 515.504 255.389C529.483 230.912 552.063 212.505 578.857 203.747C585.266 201.691 591.842 200.195 598.511 199.276C600.624 197.867 602.769 196.557 604.948 195.263C610.051 192.263 615.348 189.603 620.802 187.303C623.112 186.353 625.405 185.469 627.78 184.65C622.924 184.104 618.04 183.836 613.154 183.847C606.224 184.29 599.279 183.28 592.762 180.883C584.496 177.856 577.221 172.615 571.732 165.733C570.891 173.485 568.185 180.919 563.847 187.399C559.509 193.879 553.667 199.213 546.82 202.945C542.611 205.503 538.543 208.286 534.634 211.282C529.4 215.874 523.263 219.322 516.618 221.404C508.236 224.067 499.283 224.373 490.739 222.288C494.801 228.934 497.207 236.459 497.754 244.229C498.301 251.999 496.974 259.786 493.884 266.936C492.361 270.982 491.034 275.126 489.904 279.319C489.216 281.939 488.577 284.593 488.037 287.262C487.496 289.932 487.152 292.176 486.792 294.731C485.908 300.844 485.475 307.013 485.498 313.19C485.498 315.712 485.498 318.267 485.76 320.806C486.022 323.345 486.17 325.883 486.464 328.406H486.399ZM507.331 462.154C512.186 465.973 517.322 469.422 522.694 472.472C524.872 473.734 527.133 474.946 529.426 476.059C531.719 477.173 534.012 478.238 536.354 479.237C543.934 482.45 551.804 484.929 559.857 486.64C564.983 487.764 570.174 488.563 575.401 489.031C579.092 489.517 582.652 490.719 585.883 492.569C587.427 493.44 588.886 494.455 590.24 495.599C599.875 503.902 610.681 510.739 622.309 515.892C624.848 515.892 627.403 515.679 629.909 515.434C635.545 514.892 641.131 513.912 646.615 512.502C648.564 512.01 650.53 511.421 652.462 510.864C652.499 510.853 652.531 510.83 652.554 510.799C652.577 510.768 652.589 510.73 652.589 510.692C652.589 510.654 652.577 510.616 652.554 510.585C652.531 510.554 652.499 510.531 652.462 510.52C638.617 507.749 625.385 502.506 613.399 495.042C607.621 491.076 602.721 485.964 599.002 480.023C594.375 472.537 591.883 463.928 591.796 455.127C589.032 457.98 585.923 460.478 582.542 462.563C572.24 468.902 558.825 472.161 548.54 468.804C537.735 464.922 527.58 459.427 518.419 452.507C516.568 451.098 514.734 449.673 512.949 448.166C511.164 446.66 509.411 445.022 507.691 443.351C503.451 439.292 499.53 434.911 495.964 430.248C494.49 428.332 493.081 426.35 491.722 424.335C490.363 422.321 488.774 419.815 487.48 417.506C473.319 393.18 468.702 364.461 474.524 336.922C475.944 330.367 477.923 323.945 480.437 317.727C480.273 315.188 480.208 312.682 480.175 310.143C480.123 304.225 480.473 298.309 481.223 292.438C481.535 289.981 481.928 287.524 482.386 285.084C479.498 289.017 476.829 293.107 474.393 297.335C471.306 303.559 466.961 309.074 461.634 313.534C454.876 319.167 446.701 322.838 438 324.147C441.199 326.523 444.102 329.272 446.648 332.336C454.026 341.303 457.979 352.599 457.802 364.209C457.911 369.14 458.293 374.062 458.948 378.95C460.293 385.789 460.204 392.833 458.686 399.636C456.806 408.253 452.59 416.186 446.501 422.567C454.292 422.378 462.016 424.065 469.019 427.485C476.023 430.906 482.101 435.96 486.743 442.221C489.493 445.583 492.412 448.803 495.489 451.868C497.405 453.768 499.371 455.651 501.402 457.453C503.433 459.255 505.267 460.729 507.265 462.252L507.331 462.154ZM661.88 527.243C667.613 524.932 673.165 522.194 678.488 519.053C680.672 517.798 682.856 516.455 685.04 515.024C687.136 513.632 689.216 512.125 691.247 510.602C702.006 502.46 711.448 492.71 719.238 481.694C721.511 478.742 724.337 476.261 727.559 474.389C729.083 473.484 730.69 472.727 732.358 472.128C744.362 467.922 755.685 461.979 765.967 454.489C767.162 452.245 768.341 449.984 769.373 447.675C771.744 442.516 773.7 437.176 775.221 431.706C775.843 429.527 776.367 427.3 776.858 425.154C767.436 435.995 756.106 445.016 743.43 451.77C737.111 454.774 730.243 456.446 723.251 456.683C714.452 456.953 705.747 454.812 698.077 450.492C699.163 454.311 699.768 458.251 699.879 462.219C700.223 474.307 696.341 487.541 688.299 494.78C679.529 502.177 669.688 508.202 659.112 512.649C656.966 513.566 654.805 514.451 652.561 515.237C650.317 516.023 648.073 516.744 645.763 517.383C640.13 519.014 634.381 520.219 628.566 520.986C626.158 521.314 623.652 521.526 621.31 521.707C618.968 521.887 616.003 521.969 613.35 521.985C585.187 522.065 557.998 511.681 537.058 492.847C532.088 488.332 527.512 483.401 523.382 478.107C521.122 476.976 518.911 475.781 516.683 474.536C511.555 471.594 506.63 468.311 501.942 464.709C499.961 463.186 498.044 461.63 496.161 460.008C498.096 464.496 500.283 468.87 502.712 473.111C506.568 478.895 509.168 485.423 510.345 492.274C511.855 500.942 510.96 509.859 507.757 518.054C511.39 516.449 515.208 515.299 519.124 514.631C530.573 512.724 542.328 514.947 552.29 520.904C556.641 523.288 561.119 525.432 565.705 527.325C572.303 529.58 578.361 533.183 583.492 537.905C589.993 543.877 594.73 551.52 597.184 560C599.071 556.509 601.387 553.268 604.08 550.353C611.965 541.756 622.679 536.28 634.266 534.924C638.553 534.222 642.8 533.298 646.992 532.156C649.596 531.436 652.233 530.682 654.788 529.814C657.343 528.946 659.538 528.176 661.88 527.144V527.243ZM794.547 392.037C792.861 378.643 789.138 365.586 783.508 353.317C782.073 349.882 781.328 346.198 781.313 342.475C781.311 340.702 781.459 338.932 781.756 337.185C784.137 324.685 784.661 311.904 783.312 299.251C781.969 297.09 780.576 294.96 779.119 292.897C775.823 288.252 772.17 283.871 768.194 279.794C766.556 278.156 764.918 276.616 763.28 275.093C767.974 288.664 770.133 302.982 769.652 317.334C769.107 324.321 767.133 331.122 763.854 337.316C759.664 345.066 753.433 351.523 745.837 355.987C749.683 356.972 753.395 358.419 756.893 360.295C767.539 366.044 777.055 376.035 779.315 386.615C781.343 397.915 781.652 409.455 780.232 420.847C779.954 423.156 779.626 425.482 779.217 427.759C778.807 430.035 778.267 432.41 777.677 434.72C776.28 440.419 774.451 446.004 772.207 451.426C771.273 453.67 770.258 455.881 769.177 458.059C768.096 460.237 766.769 462.793 765.459 465.102C751.462 489.527 728.899 507.888 702.139 516.629C695.729 518.685 689.153 520.181 682.484 521.101C680.372 522.493 678.226 523.82 676.048 525.13C670.944 528.125 665.648 530.779 660.193 533.073C657.9 534.023 655.591 534.908 653.232 535.727C658.083 536.264 662.961 536.532 667.842 536.529C674.772 536.079 681.719 537.089 688.233 539.494C696.502 542.516 703.779 547.758 709.264 554.644C709.693 550.691 710.612 546.807 711.999 543.081C716.075 532.211 723.875 523.14 734.012 517.481C738.257 514.916 742.353 512.11 746.279 509.079C751.523 504.503 757.657 501.062 764.296 498.973C772.683 496.313 781.639 496.002 790.191 498.072C788.102 494.703 786.451 491.081 785.277 487.295C781.833 476.185 782.484 464.21 787.111 453.539C788.644 449.48 789.973 445.348 791.091 441.156C791.779 438.536 792.435 435.882 792.959 433.213C793.483 430.543 793.859 428.299 794.203 425.744C795.071 419.635 795.487 413.471 795.448 407.302C795.448 404.763 795.35 402.208 795.186 399.653C795.022 397.098 794.793 394.608 794.482 392.086L794.547 392.037ZM834.102 387.025C826.726 378.058 822.779 366.761 822.964 355.152C822.848 350.221 822.465 345.3 821.818 340.411C820.473 333.572 820.563 326.528 822.08 319.725C823.959 311.111 828.169 303.179 834.249 296.795C830.286 296.905 826.324 296.52 822.457 295.648C811.065 293.121 800.964 286.574 794.007 277.206C791.247 273.832 788.317 270.601 785.228 267.526C783.295 265.61 781.33 263.726 779.299 261.924C777.268 260.123 775.433 258.649 773.435 257.126C768.583 253.31 763.453 249.861 758.088 246.807C755.894 245.546 753.633 244.35 751.357 243.22C749.08 242.09 746.771 241.042 744.412 240.043C736.837 236.835 728.972 234.361 720.925 232.656C715.8 231.529 710.608 230.724 705.382 230.248C701.692 229.765 698.132 228.569 694.9 226.727C693.353 225.853 691.895 224.832 690.543 223.68C680.902 215.378 670.09 208.54 658.457 203.387C655.918 203.387 653.363 203.6 650.857 203.846C645.203 204.375 639.6 205.355 634.102 206.777C631.907 207.334 629.729 207.99 627.55 208.677C641.642 211.386 655.116 216.66 667.301 224.237C673.084 228.191 677.986 233.299 681.698 239.24C686.328 246.725 688.821 255.335 688.905 264.136C691.676 261.283 694.79 258.785 698.175 256.7C708.461 250.361 721.875 247.102 732.161 250.459C742.973 254.366 753.132 259.883 762.298 266.822C764.149 268.23 765.999 269.655 767.785 271.162C769.57 272.669 771.322 274.307 773.042 275.977C777.273 280.041 781.188 284.421 784.753 289.08C786.227 291.013 787.641 292.989 788.995 295.009C790.485 297.204 791.894 299.464 793.237 301.757C807.376 326.097 811.992 354.813 806.193 382.357C804.777 388.914 802.799 395.336 800.28 401.553C800.427 404.091 800.509 406.597 800.542 409.136C800.586 415.055 800.235 420.969 799.494 426.841C799.166 429.315 798.773 431.755 798.314 434.195C801.199 430.265 803.867 426.181 806.307 421.961C809.396 415.738 813.74 410.222 819.066 405.762C825.82 400.118 833.997 396.44 842.701 395.132C839.502 392.757 836.598 390.008 834.053 386.943L834.102 387.025ZM604.571 200.963C602.376 202.224 600.214 203.584 598.102 204.992C595.989 206.401 593.925 207.858 591.96 209.496C581.177 217.607 571.709 227.33 563.886 238.323C561.615 241.27 558.796 243.751 555.583 245.628C554.051 246.529 552.439 247.286 550.767 247.888C538.763 252.095 527.439 258.038 517.158 265.528C515.946 267.772 514.783 270.032 513.751 272.341C511.387 277.503 509.432 282.843 507.904 288.311C507.282 290.489 506.774 292.7 506.266 294.862C515.697 284.044 527.026 275.04 539.695 268.296C546.019 265.307 552.884 263.635 559.874 263.382C568.674 263.118 577.379 265.265 585.048 269.59C583.97 265.769 583.365 261.831 583.246 257.863C582.902 245.775 586.784 232.541 594.842 225.302C603.608 217.894 613.442 211.853 624.013 207.384C626.158 206.466 628.32 205.582 630.564 204.796C632.808 204.009 635.052 203.289 637.361 202.634C642.995 201.007 648.744 199.808 654.559 199.047C656.967 198.719 659.391 198.506 661.815 198.342C664.239 198.179 667.105 198.064 669.791 198.048C687.135 197.958 704.266 201.862 719.859 209.457C735.452 217.052 749.088 228.134 759.71 241.844C762.003 242.974 764.198 244.17 766.425 245.398C771.549 248.347 776.474 251.63 781.166 255.226C783.115 256.732 785.048 258.305 786.931 259.926C784.999 255.437 782.812 251.063 780.38 246.823C776.529 241.047 773.924 234.532 772.731 227.693C771.225 218.991 772.149 210.042 775.401 201.831C768.291 204.964 760.532 206.341 752.778 205.845C745.024 205.349 737.503 202.995 730.851 198.981C726.499 196.595 722.021 194.447 717.437 192.544C710.836 190.301 704.777 186.703 699.649 181.98C693.151 176.049 688.408 168.445 685.94 160C684.054 163.487 681.743 166.727 679.061 169.647C671.166 178.238 660.448 183.708 648.859 185.059C644.578 185.756 640.335 186.675 636.149 187.811C633.529 188.515 630.908 189.285 628.337 190.153C625.765 191.021 623.587 191.791 621.245 192.806C615.516 195.128 609.966 197.865 604.637 200.996" fill="white"/>
</g>
<path id="Vector_2" fill-rule="evenodd" clip-rule="evenodd" d="M653.658 424.565L664.714 339.15C688.79 292.307 692.312 281.661 689.658 285.69C687.005 289.719 675.736 309.144 675.736 309.144L682.042 289.948C682.042 289.948 681.42 291.504 673.984 306.049C684.859 278.418 685.351 266.74 685.449 265.741L665.664 322.804C665.664 322.804 667.875 256.405 665.533 258.387C663.19 260.369 662.388 339.347 662.388 339.347L651.005 425.04L648.892 425.416L646.173 353.514C646.173 353.514 654.936 250.803 652.118 247.954C649.301 245.104 644.06 331.616 644.06 331.616L623.652 248.085C623.652 248.085 624.291 270.458 635.363 308.882C628.468 291.537 627.174 287.77 626.912 287.082L632.693 312.682C632.693 312.682 620.409 286.067 617.461 280.514C614.513 274.962 617.789 289.228 643.323 352.974L645.845 426.022L628.009 429.298L623.325 387.287C623.325 387.287 624.193 313.698 622.064 311.798C619.934 309.898 620.688 371.809 620.688 371.809L601.787 313.304C601.787 313.304 603.425 329.208 613.252 355.987C607.601 344.375 606.356 341.558 606.111 340.968L611.614 358.837C611.614 358.837 601.476 340.493 599.084 336.71C596.693 332.926 599.789 342.884 621.277 386.976L625.896 429.56" fill="white"/>
<path id="Vector_3" fill-rule="evenodd" clip-rule="evenodd" d="M783.836 393.625V435.817C783.836 441.664 770.078 451.131 765.148 455.062L727.477 474.258L647.893 523.492C642.979 526.194 614.628 515.909 591.239 496.647L585.212 491.635L530.441 467.067C528.803 466.199 506.381 453.227 505.202 451.934L783.836 393.56V393.625Z" fill="white"/>
</g>
</g>
</svg>
