<svg xmlns="http://www.w3.org/2000/svg" width="16" height="16" viewBox="0 0 16 16">
  <path d="M14.6249675,15.9999952 C14.8312048,15.9999952 14.9999666,15.8312334 14.9999666,15.6249961 L14.9999666,15.3749967 C14.9999666,15.1687594 14.8312048,14.9999976 14.6249675,14.9999976 L14.5218489,14.9999976 C14.3968492,14.368743 14.421843,13.4468702 14.5343305,12.9437586 C14.806211,12.8312406 14.9999666,12.5625034 14.9999666,12.2500042 L14.9999666,0.75003159 C14.9999666,0.334413685 14.6655863,3.33786011e-05 14.2499684,3.33786011e-05 L3.5,3.33786011e-05 C2.11874123,3.33786011e-05 1,1.11877461 1,2.50003338 L1,14 C1,15.1046727 1.89532257,15.9999952 3,15.9999952 L14.6249675,15.9999952 Z M1.99999762,12.2775004 L1.99999762,2.50003099 C1.99999762,1.67190439 2.67187101,1.00003099 3.49999762,1.00003099 L13.999969,1.00003099 L13.999969,12.0000048 L2.99999762,12.0000048 C2.63375465,12.0000048 2.29531552,12.1056259 1.99999762,12.2775004 Z M9.24998033,11.0000072 C9.6630958,11.0000072 9.99997854,10.6634601 9.99997854,10.2500089 L9.99997854,7.00001669 L11.2499756,7.00001669 C11.663091,7.00001669 11.9999738,6.66346964 11.9999738,6.25001848 L11.9999738,4.75002205 C11.9999738,4.33657089 11.663091,4.00002861 11.2499756,4.00002861 L9.99997854,4.00002861 L9.99997854,2.75002682 C9.99997854,2.33657566 9.6630958,2.00002861 9.24998033,2.00002861 L7.74998391,2.00002861 C7.33686844,2.00002861 6.99999046,2.33657566 6.99999046,2.75002682 L6.99999046,4.00002861 L5.74998868,4.00002861 C5.3368732,4.00002861 4.99999046,4.33657089 4.99999046,4.75002205 L4.99999046,6.25001848 C4.99999046,6.66346964 5.3368732,7.00001669 5.74998868,7.00001669 L6.99999046,7.00001669 L6.99999046,10.2500089 C6.99999046,10.6634601 7.33686844,11.0000072 7.74998391,11.0000072 L9.24998033,11.0000072 Z M8.99998808,10.0000095 L7.99998808,10.0000095 L7.99998808,6.00002623 L5.99998808,6.00002623 L5.99998808,5.00002623 L7.99998808,5.00002623 L7.99998808,3.00002623 L8.99998808,3.00002623 L8.99998808,5.00002623 L10.9999762,5.00002623 L10.9999762,6.00002623 L8.99998808,6.00002623 L8.99998808,10.0000095 Z M13.6343388,15.0000024 L2.99999762,15.0000024 C2.44781149,15.0000024 1.99999762,14.5521837 1.99999762,14.0000024 C1.99999762,13.4478163 2.44781149,13.0000024 2.99999762,13.0000024 L13.6343388,13.0000024 C13.5437323,13.5874949 13.5374762,14.3624869 13.6343388,15.0000024 Z"/>
</svg>
