<svg xmlns="http://www.w3.org/2000/svg" width="16" height="16" viewBox="0 0 16 16">
  <path d="M10.8906014,14.9500099 C12.012486,14.896879 13.0062275,14.6406235 13.8249816,13.8187565 C14.6437053,13.0000024 14.8999608,12.0062609 14.9562045,10.8843763 C15.0218477,9.72812908 15.0218477,6.26564344 14.9562045,5.1093962 C14.9031041,3.98751166 14.6468486,2.99377014 13.8249816,2.17501599 C13.0062275,1.35629235 12.012486,1.10003686 10.8906014,1.0437931 C9.73435418,0.978149943 6.26872523,0.978149943 5.11247799,1.0437931 C3.99373676,1.09689356 2.99999523,1.35314905 2.17812829,2.1719032 C1.35626136,2.99065735 1.10311865,3.98439888 1.04687489,5.10628341 C0.981262252,6.26253065 0.981262252,9.72812908 1.04687489,10.8843763 C1.10000587,12.0062609 1.35626136,13.0000024 2.17812829,13.8187565 C2.99999523,14.6375107 3.99062397,14.8937357 5.11247799,14.9500099 C6.26872523,15.0156226 9.73435418,15.0156226 10.8906014,14.9500099 Z M8.0030961,13.7374884 C6.98436073,13.7374884 4.79375316,13.8187565 3.87499315,13.4562391 C3.26250681,13.2124958 2.79061463,12.7406341 2.54375853,12.1250045 C2.17812829,11.2031317 2.2625092,9.01563688 2.2625092,7.99690152 C2.2625092,6.97813564 2.18124108,4.78752807 2.54375853,3.86876805 C2.78750184,3.25628172 3.25936351,2.78438953 3.87499315,2.53753343 C4.79686595,2.1719032 6.98436073,2.2562841 8.0030961,2.2562841 C9.02186198,2.2562841 11.2124695,2.17501599 12.1312296,2.53753343 C12.7437159,2.78127675 13.2156081,3.25313842 13.4624642,3.86876805 C13.8280944,4.79064085 13.7437135,6.97813564 13.7437135,7.99690152 C13.7437135,9.01563688 13.8280944,11.2062445 13.4624642,12.1250045 C13.2187209,12.7374908 12.7468592,13.209383 12.1312296,13.4562391 C11.2093568,13.8218693 9.02186198,13.7374884 8.0030961,13.7374884 Z M11.7406055,5.09688402 C12.2030983,5.09688402 12.5780974,4.72502822 12.5780974,4.25939212 C12.5780974,3.79689933 12.2030983,3.42190022 11.7406055,3.42190022 C11.2781127,3.42190022 10.9031136,3.79689933 10.9031136,4.25939212 C10.9031136,4.72188491 11.2749694,5.09688402 11.7406055,5.09688402 Z M8.0030961,11.5874996 C9.99060967,11.5874996 11.5937247,9.98438457 11.5937247,7.99690152 C11.5937247,6.00938795 9.99060967,4.40627287 8.0030961,4.40627287 C6.01561304,4.40627287 4.41249797,6.00938795 4.41249797,7.99690152 C4.41249797,9.98438457 6.01561304,11.5874996 8.0030961,11.5874996 Z M8.0030961,10.3312465 C6.71873637,10.3312465 5.66875108,9.28437404 5.66875108,7.99690152 C5.66875108,6.70939849 6.71562358,5.66252598 8.0030961,5.66252598 C9.29059913,5.66252598 10.3374716,6.70939849 10.3374716,7.99690152 C10.3374716,9.28437404 9.28748634,10.3312465 8.0030961,10.3312465 Z"/>
</svg>
