<svg xmlns="http://www.w3.org/2000/svg" width="16" height="16" viewBox="0 0 16 16">
  <path d="M7.7363402,10.5617147 L7.87305862,10.4249963 C8.13929334,10.1587921 8.29365088,9.82242817 8.33600918,9.4748643 C8.35541831,9.31559344 8.27546245,9.15882502 8.13099258,9.08903148 C7.91047308,8.98243384 7.59107687,8.75523101 7.41804262,8.58189158 C6.39375307,7.55760203 6.39561463,5.89235331 7.41804262,4.86971171 L9.76773794,2.51971121 C10.7960863,1.4920037 12.4559945,1.49612356 13.480223,2.51971121 C14.5079305,3.5480901 14.5038106,5.20799826 13.480223,6.23219625 L12.0474566,7.66468796 C11.9559041,7.75624047 11.9172079,7.88874748 11.9474202,8.01463219 C12.0244464,8.33637825 12.090883,8.86597904 12.0957353,9.19675828 C12.1005571,9.52631682 12.5026863,9.68564871 12.735901,9.45276963 L12.8114171,9.37731924 L12.8114171,9.37731924 L12.9825506,9.20614912 C13.0134216,9.17525605 13.0455054,9.14314309 13.0788597,9.10975396 L13.6816612,8.50616788 C13.7291608,8.45860981 13.778219,8.40949412 13.8288934,8.35876453 L14.1527961,8.03456989 C14.324906,7.86233885 14.5125997,7.67456952 14.7174332,7.46974213 C16.4278478,5.75926647 16.4271154,2.99163391 14.7174027,1.28253154 C13.0072932,-0.428249292 10.2394775,-0.426723416 8.53022258,1.28253154 L8.14664663,1.66601199 C8.08627815,1.72635038 8.0276539,1.78493834 7.9707196,1.84183144 L7.23666641,2.5750636 C7.1952746,2.61639807 7.15530133,2.65631566 7.11669233,2.69487197 L6.7153949,3.09576402 C6.60114128,3.20998617 6.50524185,3.3059858 6.42422258,3.38732093 L6.31341955,3.49877 C5.99513341,3.81968064 5.97338969,3.84986246 5.875871,3.97063548 C4.48128204,5.68541411 4.58394293,8.22279209 6.18055777,9.81937642 C6.51924105,10.1580597 6.90009952,10.4295434 7.30631803,10.6334004 C7.44950616,10.7052996 7.62299818,10.6749957 7.7363402,10.5617147 Z M7.46973927,14.7174971 C7.60486436,14.5823736 7.73257826,14.4546965 7.85331522,14.3340209 L8.76329544,13.424977 C9.13582174,13.0529689 9.39344592,12.7957256 9.57573927,12.6127202 L9.6865423,12.5012701 C10.0048284,12.1803556 10.0265722,12.1501662 10.1240909,12.0293931 C11.5186798,10.3146145 11.4160189,7.77723652 9.81940408,6.18065219 C9.4807208,5.84196891 9.09986234,5.57048519 8.69364382,5.36662825 C8.55042517,5.29472901 8.37690264,5.32500237 8.26362166,5.43831387 L8.12690323,5.57503229 C7.86069903,5.84126701 7.70631097,6.17760044 7.66395267,6.52516431 C7.64454354,6.68443517 7.72449941,6.84120359 7.86896928,6.91099713 C8.08948877,7.01759477 8.40888498,7.2447976 8.58191924,7.41813703 C9.60620879,8.44242658 9.60434722,10.1076753 8.58191924,11.1303169 L6.23222391,13.4803174 C5.20387553,14.5080249 3.54396738,14.503905 2.51973887,13.4803174 C1.49203135,12.4519385 1.49615122,10.7920304 2.51973887,9.76783236 L3.95253574,8.33537117 C4.04408826,8.24381866 4.08278446,8.11131165 4.05257213,7.98542694 C3.97554594,7.66368088 3.90910933,7.13408009 3.90425705,6.80330085 C3.89943528,6.47374231 3.49730611,6.31441041 3.26409134,6.5472895 L3.18857531,6.62273989 L3.18857531,6.62273989 L3.01744178,6.79391 C2.98657076,6.82480308 2.95448693,6.85691604 2.92113267,6.89030517 L2.31833114,7.49389124 C2.27083158,7.54144932 2.2217734,7.590565 2.17109897,7.64129459 L1.84719628,7.96548924 C1.67508634,8.13772028 1.48739269,8.3254896 1.2825592,8.530317 C-0.427885943,10.2407927 -0.427153523,13.0084252 1.2825592,14.7174971 C2.99266865,16.4282779 5.76048431,16.426752 7.46973927,14.7174971 Z"/>
</svg>
