<svg xmlns="http://www.w3.org/2000/svg" width="16" height="16" viewBox="0 0 16 16">
  <path d="M14.6247234,14.9999671 C14.8366064,14.9999671 15.0055513,14.8247051 14.9998446,14.6129746 C14.7983069,7.18068032 8.81058929,1.20166015 1.38705352,1.00018358 C1.17529255,0.994446291 1,1.16342172 1,1.37524372 L1,2.1258828 C1,2.32842749 1.16085777,2.49486996 1.3633109,2.50060725 C7.98753217,2.68935802 13.3106701,8.02357382 13.4993598,14.6366562 C13.5051277,14.8391093 13.6715396,14.9999671 13.8740843,14.9999671 L14.6247234,14.9999671 Z M10.3674398,15.0000281 C10.5798417,15.0000281 10.7507092,14.8236675 10.7423779,14.6114182 C10.54377,9.53156583 6.46766885,5.45622765 1.3885794,5.25761972 C1.17633015,5.24928844 1,5.42015595 1,5.63258831 L1,6.38331894 C1,6.58430723 1.15850792,6.74910176 1.35928259,6.7577077 C5.63325922,6.940416 9.05961213,10.3674098 9.24232044,14.6407455 C9.25092637,14.8415202 9.4157209,15.0000281 9.61670919,15.0000281 L10.3674398,15.0000281 Z M3.5,14.9999976 C4.88069753,14.9999976 5.99998808,13.8807071 5.99998808,12.5000095 C5.99998808,11.1193001 4.88069753,10.0000095 3.5,10.0000095 C2.11929054,10.0000095 1,11.1193001 1,12.5000095 C1,13.8807071 2.11929054,14.9999976 3.5,14.9999976 Z M3.49999642,13.500006 C2.94860375,13.500006 2.49999642,13.0513939 2.49999642,12.500006 C2.49999642,11.9486133 2.94860375,11.500006 3.49999642,11.500006 C4.05138433,11.500006 4.49999642,11.9486133 4.49999642,12.500006 C4.49999642,13.0513939 4.05138433,13.500006 3.49999642,13.500006 Z"/>
</svg>
