<svg xmlns="http://www.w3.org/2000/svg" width="16" height="16" viewBox="0 0 16 16">
  <path d="M5.03551046,14.4974659 C11.0659831,14.4974659 14.3654443,9.50254368 14.3654443,5.16756256 C14.3654443,5.02544254 14.3654443,4.88326148 14.3552819,4.74114146 C14.9948678,4.27413208 15.5532771,3.69545914 15.9999008,3.04574145 C15.4110961,3.29952502 14.7715102,3.48229436 14.1115997,3.55333912 C14.7917738,3.14727319 15.3095338,2.50768731 15.5532161,1.74624504 C14.9237315,2.12188501 14.2131009,2.39599324 13.4720138,2.53811326 C12.8729857,1.89852739 12.020235,1.50259327 11.0760539,1.50259327 C9.25882802,1.50259327 7.79688693,2.97466618 7.79688693,4.78176026 C7.79688693,5.03557435 7.8273434,5.28935793 7.87809401,5.53300969 C5.15733634,5.39085915 2.73092,4.09139325 1.11672707,2.10156035 C0.832425994,2.58886388 0.670042348,3.14724267 0.670042348,3.75637208 C0.670042348,4.89342381 1.24868477,5.89848733 2.13192241,6.4873226 C1.59389879,6.46705898 1.08624009,6.31477662 0.649717689,6.07112486 L0.649717689,6.11171314 C0.649717689,7.70561193 1.77663761,9.02537197 3.27916699,9.32996719 C3.00508927,9.40101194 2.71065638,9.44163074 2.416254,9.44163074 C2.20302819,9.44163074 2,9.4213366 1.79693175,9.39088013 C2.21319052,10.6903765 3.42131753,11.6345271 4.86293396,11.6650141 C3.73601404,12.5482518 2.32482356,13.0660117 0.791868229,13.0660117 C0.517759996,13.0660117 0.263976421,13.0558494 0,13.0254235 C1.45177877,13.9593812 3.17763525,14.4974659 5.03551046,14.4974659 Z"/>
</svg>
