<svg xmlns="http://www.w3.org/2000/svg" width="16" height="16" viewBox="0 0 16 16">
  <path d="M7.30622886,14.1093747 C8.62498182,14.1093747 10.234353,12.8718899 12.1374857,10.3968897 C13.9812313,8.02815145 14.9312107,6.16252479 14.9937105,4.80000973 C15.0749786,2.97814517 14.3968492,2.04379071 12.9656087,2.0062847 C11.02497,1.94378485 9.70936034,3.03753224 9.02186198,5.29063966 C9.88123493,4.92189664 11.1499697,4.82503408 10.9999762,6.25938735 C10.9562141,6.7437612 10.640602,7.44688452 10.0562223,8.37190063 C8.42497009,10.9406201 8.02812045,10.0843904 7.13124149,4.41252896 C6.87809878,2.81878276 6.20936868,2.07189734 5.11873408,2.17815929 C4.23709529,2.25804483 2.8760742,3.57799466 1.41868752,4.88445309 L1,5.25627695 L1,5.25627695 L1.65624844,6.10628103 C2.28435973,5.66878207 2.64998996,5.44688929 2.75625192,5.44688929 C3.66561254,5.44688929 4.13436142,7.81251475 5.2343649,11.8500112 C5.79997635,13.3562637 6.49061801,14.1093747 7.30622886,14.1093747 Z"/>
</svg>
