<svg xmlns="http://www.w3.org/2000/svg" width="16" height="16" viewBox="0 0 16 16">
  <path d="M13.8343332,12.6859215 C14.4768296,12.5131008 14.982848,12.025 15.1546005,11.3783379 C15.430644,10.3414388 15.4624952,8.30802362 15.4661703,7.85257884 L15.4661703,7.66864922 C15.4624952,7.21320926 15.430644,5.17981501 15.1546005,4.14291586 C14.982848,3.49622704 14.4768296,2.9869242 13.8343332,2.81410357 C12.8109291,2.53809516 9.08055111,2.50463959 8.19125329,2.50058437 L7.80871019,2.50058437 C6.91941703,2.50463959 3.18905684,2.53809516 2.16562929,2.81410357 C1.52313281,2.98695091 1.01711442,3.49622704 0.845361899,4.14291586 C0.569318446,5.17981501 0.537467278,7.21320926 0.533792143,7.66864922 L0.533792143,7.85257884 C0.537467278,8.30802362 0.569318446,10.3414388 0.845361899,11.3783379 C1.01711442,12.025 1.52313281,12.5131008 2.16562929,12.6859215 C3.18905684,12.9619299 6.91941703,12.9953854 7.80871019,12.9994407 L8.19125226,12.9994407 C9.08054542,12.9953854 12.8109056,12.9619299 13.8343332,12.6859215 Z M6.47268689,9.98100619 L6.47268689,5.54022088 L10.3757042,7.76066694 L6.47268689,9.98100619 Z"/>
</svg>
