<svg xmlns="http://www.w3.org/2000/svg" width="145" height="160" viewBox="0 0 145 160">
  <g fill="none" fill-rule="evenodd">
    <path fill="#FFF" d="M76.4121236,1.02144642 L140.856568,37.0963321 C143.413926,38.5278971 145,41.2439621 145,44.1917349 L145,115.808265 C145,118.756038 143.413926,121.472103 140.856568,122.903668 L76.4121236,158.978554 C73.9791643,160.340482 71.0208357,160.340482 68.5878764,158.978554 L4.14343194,122.903668 C1.58607351,121.472103 0,118.756038 0,115.808265 L0,44.1917349 C0,41.2439621 1.58607351,38.5278971 4.14343194,37.0963321 L68.5878764,1.02144642 C71.0208357,-0.340482141 73.9791643,-0.340482141 76.4121236,1.02144642 Z"/>
    <g transform="translate(5 6)">
      <path fill="#F8C76E" d="M71.142322,1.02351221 L131.142322,34.3568455 C133.523311,35.6796172 135,38.1892717 135,40.9130251 L135,107.086975 C135,109.810728 133.523311,112.320383 131.142322,113.643154 L71.142322,146.976488 C68.877153,148.234915 66.122847,148.234915 63.857678,146.976488 L3.85767802,113.643154 C1.47668913,112.320383 0,109.810728 0,107.086975 L0,40.9130251 C0,38.1892717 1.47668913,35.6796172 3.85767802,34.3568455 L63.857678,1.02351221 C66.122847,-0.234915026 68.877153,-0.234915026 71.142322,1.02351221 Z"/>
      <path fill="#1B778F" d="M135,54.7419873 L135,107.086975 C135,109.810728 133.523311,112.320383 131.142322,113.643154 L71.142322,146.976488 C68.877153,148.234915 66.122847,148.234915 63.857678,146.976488 L3.85767802,113.643154 C3.26818325,113.315657 2.7341201,112.915407 2.26417537,112.457166 L135,54.7419873 Z"/>
      <path fill="#31B5B7" d="M135,98.7109884 L135,107.086975 C135,109.810728 133.523311,112.320383 131.142322,113.643154 L71.142322,146.976488 C68.877153,148.234915 66.122847,148.234915 63.857678,146.976488 L3.85767802,113.643154 C1.47668913,112.320383 0,109.810728 0,107.086975 L0,73.6902174 L135,98.7109884 Z"/>
      <path fill="#305696" d="M72.1372905,100.336773 L77.9624243,55.3339277 C90.6447291,30.6552704 92.5027181,25.0512993 91.1068113,27.1689768 C89.7109044,29.2946486 83.7682375,39.5332875 83.7682375,39.5332875 L87.0567493,29.413763 C87.0567493,29.413763 86.7311183,30.2387698 82.8090547,37.9008612 C88.5375859,23.3421282 89.7455203,14.4808989 89.8139471,13.9368901 L78.4506696,46.7277151 C78.4506696,46.7277151 79.6147304,11.7428674 78.3818403,12.7889154 C77.1485478,13.8345636 76.7722003,55.4442484 76.7722003,55.4442484 L70.7788171,100.584994 L69.6622526,100.788448 L68.2256922,62.9020865 C68.2256922,62.9020865 72.840879,8.79178912 71.360445,7.28687108 C69.8868536,5.77315936 67.1123478,51.370777 67.1123478,51.370777 L56.3653141,7.35482223 C56.3653141,7.35482223 56.6993979,19.1411485 62.5305693,39.3801976 C58.8999235,30.2471638 58.197945,28.2573943 58.0779968,27.9000512 L61.0923989,41.3787607 C61.0923989,41.3787607 54.618418,27.3556426 53.0683495,24.4305456 C51.5182811,21.5050489 53.2398191,29.0224443 66.6929317,62.6043006 L68.0236319,101.087033 L58.6254113,102.801001 L56.1600337,80.6665148 C56.1600337,80.6665148 56.6136631,41.8891938 55.491866,40.894309 C54.3616162,39.8990246 54.7641268,72.5115778 54.7641268,72.5115778 L44.8136616,41.7189162 C44.8136616,41.7189162 45.6609465,50.095294 50.8758742,64.2115451 C47.896088,58.0891468 47.2452283,56.6090109 47.1083747,56.2944371 L49.9517098,65.7084689 C49.9517098,65.7084689 44.6079787,56.0478144 43.3489254,54.049651 C42.0902747,52.0426939 43.7172227,57.3065095 55.0466893,80.5390065 L57.4786585,103.010051"/>
      <path fill="#305696" d="M135,87.4370687 L135,107.086975 C135,109.810728 133.523311,112.320383 131.142322,113.643154 L71.142322,146.976488 C68.877153,148.234915 66.122847,148.234915 63.857678,146.976488 L3.85767802,113.643154 C3.12026482,113.23348 2.46959164,112.709961 1.92266251,112.101495 L135,87.4370687 L135,87.4370687 Z"/>
    </g>
  </g>
</svg>
