<svg xmlns="http://www.w3.org/2000/svg" width="640" height="360" viewBox="0 0 640 360">
  <g fill="none" fill-rule="evenodd">
    <rect width="640" height="360" fill="#305697"/>
    <circle cx="320" cy="180" r="90" fill="#F5F9FE"/>
    <path fill="#305697" fill-rule="nonzero" d="M370.1875,240 C371.734283,240 373,238.734283 373,237.1875 L373,235.3125 C373,233.765717 371.734283,232.5 370.1875,232.5 L369.414108,232.5 C368.476608,227.765579 368.664062,220.851517 369.507721,217.078171 C371.546829,216.234283 373,214.21875 373,211.875 L373,125.625 C373,122.507858 370.492142,120 367.375,120 L286.75,120 C276.390579,120 268,128.390579 268,138.75 L268,225 C268,233.285065 274.714935,240 283,240 L370.1875,240 Z M276,211 L276,138.172693 C276,132.004435 281.039062,127 287.25,127 L366,127 L366,208.933079 L283.5,208.933079 C280.753189,208.933079 278.21489,209.719796 276,211 Z M329.178571,202 C332.306453,202 334.857143,199.494588 334.857143,196.416667 L334.857143,172.222222 L344.321429,172.222222 C347.44931,172.222222 350,169.71681 350,166.638889 L350,155.472222 C350,152.394301 347.44931,149.888889 344.321429,149.888889 L334.857143,149.888889 L334.857143,140.583333 C334.857143,137.505412 332.306453,135 329.178571,135 L317.821429,135 C314.693547,135 312.142857,137.505412 312.142857,140.583333 L312.142857,149.888889 L302.678571,149.888889 C299.55069,149.888889 297,152.394301 297,155.472222 L297,166.638889 C297,169.71681 299.55069,172.222222 302.678571,172.222222 L312.142857,172.222222 L312.142857,196.416667 C312.142857,199.494588 314.693547,202 317.821429,202 L329.178571,202 Z M327.8,195 L320.2,195 L320.2,164.714286 L305,164.714286 L305,157.142857 L320.2,157.142857 L320.2,142 L327.8,142 L327.8,157.142857 L343,157.142857 L343,164.714286 L327.8,164.714286 L327.8,195 Z M362,232 L282.477844,232 C278.34869,232 275,228.641388 275,224.5 C275,220.358612 278.34869,217 282.477844,217 L362,217 C361.322457,221.406204 361.275675,227.218658 362,232 Z"/>
  </g>
</svg>
