<?xml version="1.0" encoding="UTF-8"?>
<svg width="410px" height="100px" viewBox="0 0 410 100" version="1.1" xmlns="http://www.w3.org/2000/svg" xmlns:xlink="http://www.w3.org/1999/xlink">
    <!-- Generator: Sketch 51.2 (57519) - http://www.bohemiancoding.com/sketch -->
    <title>logo</title>
    <desc>Created with Sketch.</desc>
    <defs></defs>
    <g id="logo" stroke="none" stroke-width="1" fill="none" fill-rule="evenodd">
        <g id="text" transform="translate(110.000000, 20.000000)" fill="#305696">
            <path d="M6.98236025,59.9291925 C6.00297647,59.9291925 5.11081148,59.7682004 4.30583851,59.4462112 C3.50086554,59.124222 2.80994077,58.6546615 2.23304348,58.0375155 C1.65614618,57.4203696 1.21006369,56.6590107 0.894782609,55.7534161 C0.579501529,54.8478216 0.421863354,53.8114344 0.421863354,52.6442236 C0.421863354,51.4770128 0.599625552,50.4406256 0.95515528,49.5350311 C1.31068501,48.6294365 1.79030754,47.8680776 2.39403727,47.2509317 C2.99776699,46.6337857 3.70210778,46.1642252 4.50708075,45.842236 C5.31205371,45.5202468 6.17067867,45.3592547 7.08298137,45.3592547 C7.65987866,45.3592547 8.17974924,45.3995027 8.6426087,45.48 C9.10546815,45.5604973 9.5079486,45.6544094 9.85006211,45.7617391 C10.1921756,45.8690689 10.4705579,45.976397 10.6852174,46.0837267 C10.8998768,46.1910564 11.047453,46.2715525 11.1279503,46.3252174 L10.564472,47.9351553 C10.4437261,47.854658 10.2693179,47.7674539 10.0412422,47.6735404 C9.81316656,47.5796269 9.55490827,47.4857148 9.26645963,47.3918012 C8.97801098,47.2978877 8.66273463,47.2207456 8.32062112,47.1603727 C7.97850761,47.0999997 7.63304522,47.0698137 7.2842236,47.0698137 C6.54633171,47.0698137 5.88223898,47.1972658 5.29192547,47.4521739 C4.70161196,47.707082 4.1985114,48.0760224 3.7826087,48.5590062 C3.366706,49.04199 3.04807564,49.6289406 2.82670807,50.3198758 C2.60534051,51.0108109 2.49465839,51.7855858 2.49465839,52.6442236 C2.49465839,53.476029 2.59192449,54.2340338 2.78645963,54.9182609 C2.98099476,55.6024879 3.27279309,56.1894385 3.66186335,56.6791304 C4.05093362,57.1688223 4.53726416,57.5478247 5.12086957,57.8161491 C5.70447497,58.0844734 6.38533772,58.2186335 7.16347826,58.2186335 C8.06236474,58.2186335 8.80695357,58.1247214 9.39726708,57.9368944 C9.98758059,57.7490674 10.4303091,57.5813672 10.7254658,57.4337888 L11.2285714,59.0437267 C11.1346579,59.1108078 10.9669577,59.1946579 10.7254658,59.2952795 C10.4839739,59.3959011 10.1821136,59.4931672 9.81987578,59.5870807 C9.45763794,59.6809943 9.03503347,59.7614903 8.55204969,59.8285714 C8.06906591,59.8956525 7.54584133,59.9291925 6.98236025,59.9291925 Z M18.8690685,52.6442236 C18.8690685,51.4501804 19.0468307,50.3970232 19.4023604,49.4847205 C19.7578901,48.5724178 20.2408667,47.811059 20.8513045,47.2006211 C21.4617423,46.5901833 22.1727911,46.1306848 22.9844722,45.8221118 C23.7961533,45.5135388 24.6581322,45.3592547 25.5704349,45.3592547 C26.4693214,45.3592547 27.3178843,45.5135388 28.1161492,45.8221118 C28.9144141,46.1306848 29.6154009,46.5901833 30.2191306,47.2006211 C30.8228603,47.811059 31.3024828,48.5724178 31.6580126,49.4847205 C32.0135423,50.3970232 32.1913045,51.4501804 32.1913045,52.6442236 C32.1913045,53.8382668 32.0135423,54.891424 31.6580126,55.8037267 C31.3024828,56.7160294 30.8228603,57.4773883 30.2191306,58.0878261 C29.6154009,58.6982639 28.9144141,59.1577624 28.1161492,59.4663354 C27.3178843,59.7749084 26.4693214,59.9291925 25.5704349,59.9291925 C24.6581322,59.9291925 23.7961533,59.7749084 22.9844722,59.4663354 C22.1727911,59.1577624 21.4617423,58.6982639 20.8513045,58.0878261 C20.2408667,57.4773883 19.7578901,56.7160294 19.4023604,55.8037267 C19.0468307,54.891424 18.8690685,53.8382668 18.8690685,52.6442236 Z M20.9217393,52.6442236 C20.9217393,53.4894452 21.0290674,54.2575121 21.2437269,54.9484472 C21.4583863,55.6393823 21.7636006,56.226333 22.159379,56.7093168 C22.5551574,57.1923006 23.0381339,57.564595 23.6083231,57.8262112 C24.1785123,58.0878274 24.819127,58.2186335 25.5301865,58.2186335 C26.2412459,58.2186335 26.8785066,58.0878274 27.4419877,57.8262112 C28.0054688,57.564595 28.4850913,57.1923006 28.8808697,56.7093168 C29.2766481,56.226333 29.5818624,55.6393823 29.7965219,54.9484472 C30.0111813,54.2575121 30.1185095,53.4894452 30.1185095,52.6442236 C30.1185095,51.799002 30.0111813,51.0309351 29.7965219,50.34 C29.5818624,49.6490649 29.2766481,49.0621142 28.8808697,48.5791304 C28.4850913,48.0961467 28.0054688,47.7238522 27.4419877,47.462236 C26.8785066,47.2006198 26.2412459,47.0698137 25.5301865,47.0698137 C24.819127,47.0698137 24.1785123,47.2006198 23.6083231,47.462236 C23.0381339,47.7238522 22.5551574,48.0961467 22.159379,48.5791304 C21.7636006,49.0621142 21.4583863,49.6490649 21.2437269,50.34 C21.0290674,51.0309351 20.9217393,51.799002 20.9217393,52.6442236 Z M47.7204972,57.6954037 C47.586335,57.3734145 47.4085728,56.9642261 47.1872053,56.4678261 C46.9658377,55.9714261 46.7277034,55.4347855 46.4727953,54.8578882 C46.2178872,54.2809909 45.9462129,53.6873322 45.6577643,53.0768944 C45.3693156,52.4664566 45.0976413,51.8895679 44.8427332,51.3462112 C44.5878251,50.8028544 44.3496908,50.3165239 44.1283233,49.887205 C43.9069557,49.4578861 43.7291935,49.1291937 43.5950313,48.901118 C43.447453,50.4842315 43.3267088,52.1981274 43.2327953,54.0428571 C43.1388818,55.8875869 43.0583857,57.7490589 42.9913046,59.6273292 L41.0795034,59.6273292 C41.1331683,58.4198697 41.1935403,57.2023664 41.2606214,55.9747826 C41.3277025,54.7471988 41.4048446,53.5397575 41.49205,52.3524224 C41.5792554,51.1650872 41.6731675,50.0079559 41.7737891,48.8809938 C41.8744107,47.7540316 41.9850928,46.6874584 42.1058388,45.6812422 L43.8163978,45.6812422 C44.1786356,46.2715557 44.5677001,46.9691885 44.9836028,47.7741615 C45.3995055,48.5791345 45.8154019,49.4209894 46.2313046,50.2997516 C46.6472073,51.1785137 47.0496878,52.0572627 47.438758,52.9360248 C47.8278283,53.814787 48.1833527,54.6163939 48.5053419,55.3408696 C48.8273311,54.6163939 49.1828555,53.814787 49.5719258,52.9360248 C49.960996,52.0572627 50.3634765,51.1785137 50.7793792,50.2997516 C51.1952819,49.4209894 51.6111783,48.5791345 52.027081,47.7741615 C52.4429837,46.9691885 52.8320482,46.2715557 53.194286,45.6812422 L54.904845,45.6812422 C55.3609964,50.1756746 55.7031047,54.8243238 55.9311804,59.6273292 L54.0193792,59.6273292 C53.9522981,57.7490589 53.871802,55.8875869 53.7778885,54.0428571 C53.683975,52.1981274 53.5632308,50.4842315 53.4156525,48.901118 C53.2814903,49.1291937 53.1037281,49.4578861 52.8823605,49.887205 C52.660993,50.3165239 52.4228587,50.8028544 52.1679506,51.3462112 C51.9130425,51.8895679 51.6413682,52.4664566 51.3529195,53.0768944 C51.0644709,53.6873322 50.7927966,54.2809909 50.5378885,54.8578882 C50.2829804,55.4347855 50.0448461,55.9714261 49.8234785,56.4678261 C49.602111,56.9642261 49.4243488,57.3734145 49.2901866,57.6954037 L47.7204972,57.6954037 Z M71.6213669,57.6954037 C71.4872047,57.3734145 71.3094425,56.9642261 71.088075,56.4678261 C70.8667074,55.9714261 70.6285731,55.4347855 70.373665,54.8578882 C70.1187569,54.2809909 69.8470826,53.6873322 69.558634,53.0768944 C69.2701853,52.4664566 68.998511,51.8895679 68.7436029,51.3462112 C68.4886948,50.8028544 68.2505605,50.3165239 68.029193,49.887205 C67.8078254,49.4578861 67.6300632,49.1291937 67.495901,48.901118 C67.3483227,50.4842315 67.2275785,52.1981274 67.133665,54.0428571 C67.0397515,55.8875869 66.9592554,57.7490589 66.8921743,59.6273292 L64.9803731,59.6273292 C65.034038,58.4198697 65.09441,57.2023664 65.1614911,55.9747826 C65.2285722,54.7471988 65.3057143,53.5397575 65.3929197,52.3524224 C65.4801251,51.1650872 65.5740372,50.0079559 65.6746588,48.8809938 C65.7752804,47.7540316 65.8859626,46.6874584 66.0067085,45.6812422 L67.7172675,45.6812422 C68.0795053,46.2715557 68.4685698,46.9691885 68.8844725,47.7741615 C69.3003752,48.5791345 69.7162716,49.4209894 70.1321743,50.2997516 C70.548077,51.1785137 70.9505575,52.0572627 71.3396278,52.9360248 C71.728698,53.814787 72.0842224,54.6163939 72.4062116,55.3408696 C72.7282008,54.6163939 73.0837252,53.814787 73.4727955,52.9360248 C73.8618657,52.0572627 74.2643462,51.1785137 74.6802489,50.2997516 C75.0961516,49.4209894 75.512048,48.5791345 75.9279507,47.7741615 C76.3438534,46.9691885 76.7329179,46.2715557 77.0951557,45.6812422 L78.8057147,45.6812422 C79.2618661,50.1756746 79.6039744,54.8243238 79.8320501,59.6273292 L77.9202489,59.6273292 C77.8531678,57.7490589 77.7726717,55.8875869 77.6787582,54.0428571 C77.5848447,52.1981274 77.4641005,50.4842315 77.3165222,48.901118 C77.18236,49.1291937 77.0045978,49.4578861 76.7832302,49.887205 C76.5618627,50.3165239 76.3237284,50.8028544 76.0688203,51.3462112 C75.8139122,51.8895679 75.5422379,52.4664566 75.2537892,53.0768944 C74.9653406,53.6873322 74.6936663,54.2809909 74.4387582,54.8578882 C74.1838501,55.4347855 73.9457158,55.9714261 73.7243483,56.4678261 C73.5029807,56.9642261 73.3252185,57.3734145 73.1910563,57.6954037 L71.6213669,57.6954037 Z M94.4556527,59.9291925 C93.54335,59.9291925 92.7518052,59.7883244 92.0809944,59.5065839 C91.4101836,59.2248433 90.8601269,58.8391329 90.430808,58.349441 C90.0014891,57.8597491 89.6828588,57.2795065 89.4749074,56.6086957 C89.2669561,55.9378848 89.1629819,55.21342 89.1629819,54.4352795 L89.1629819,45.6812422 L91.1150316,45.6812422 L91.1150316,54.213913 C91.1150316,55.6091995 91.4236,56.6221086 92.0407459,57.2526708 C92.6578919,57.883233 93.4628527,58.1985093 94.4556527,58.1985093 C94.9520527,58.1985093 95.4048432,58.1213672 95.8140378,57.9670807 C96.2232324,57.8127943 96.5754028,57.57466 96.8705596,57.2526708 C97.1657163,56.9306816 97.3937886,56.5181392 97.5547832,56.0150311 C97.7157778,55.511923 97.7962739,54.9115563 97.7962739,54.213913 L97.7962739,45.6812422 L99.7483236,45.6812422 L99.7483236,54.4352795 C99.7483236,55.21342 99.6443494,55.9378848 99.4363981,56.6086957 C99.2284467,57.2795065 98.9064624,57.8597491 98.4704354,58.349441 C98.0344083,58.8391329 97.4843517,59.2248433 96.820249,59.5065839 C96.1561463,59.7883244 95.3679554,59.9291925 94.4556527,59.9291925 Z M119.040746,59.6273292 C118.745589,59.1309292 118.406835,58.5741646 118.024473,57.9570186 C117.642111,57.3398727 117.229568,56.699258 116.786833,56.0351553 C116.344098,55.3710526 115.884599,54.6968978 115.408324,54.0126708 C114.932048,53.3284438 114.459133,52.667705 113.989566,52.0304348 C113.519998,51.3931645 113.063854,50.7927978 112.621119,50.2293168 C112.178384,49.6658357 111.769195,49.1694431 111.393541,48.7401242 L111.393541,59.6273292 L109.48174,59.6273292 L109.48174,45.6812422 L111.031305,45.6812422 C111.661867,46.352053 112.336022,47.1335359 113.05379,48.0257143 C113.771557,48.9178927 114.482606,49.8368897 115.186957,50.7827329 C115.891309,51.7285762 116.555401,52.6576352 117.179255,53.5699379 C117.803109,54.4822406 118.329688,55.2939095 118.759007,56.0049689 L118.759007,45.6812422 L120.670808,45.6812422 L120.670808,59.6273292 L119.040746,59.6273292 Z M130.504846,45.6812422 L132.456895,45.6812422 L132.456895,59.6273292 L130.504846,59.6273292 L130.504846,45.6812422 Z M151.608448,45.6812422 L151.608448,47.371677 L147.221367,47.371677 L147.221367,59.6273292 L145.269318,59.6273292 L145.269318,47.371677 L140.882237,47.371677 L140.882237,45.6812422 L151.608448,45.6812422 Z M163.937889,59.6273292 L163.937889,54.032795 C163.01217,52.5972599 162.140129,51.1818703 161.32174,49.7865839 C160.503351,48.3912974 159.73193,47.0228639 159.007455,45.6812422 L161.301616,45.6812422 C161.811432,46.781372 162.381613,47.8982552 163.012175,49.0319255 C163.642737,50.1655957 164.293414,51.2556469 164.964225,52.3021118 C165.621619,51.2556469 166.265588,50.1655957 166.89615,49.0319255 C167.526712,47.8982552 168.103601,46.781372 168.626833,45.6812422 L170.80025,45.6812422 C170.075774,47.0228639 169.304353,48.3879434 168.485964,49.7765217 C167.667575,51.1651001 166.802242,52.5704277 165.889939,53.9925466 L165.889939,59.6273292 L163.937889,59.6273292 Z M196.042734,59.9291925 C195.063351,59.9291925 194.171186,59.7682004 193.366213,59.4462112 C192.56124,59.124222 191.870315,58.6546615 191.293418,58.0375155 C190.71652,57.4203696 190.270438,56.6590107 189.955157,55.7534161 C189.639876,54.8478216 189.482237,53.8114344 189.482237,52.6442236 C189.482237,51.4770128 189.66,50.4406256 190.015529,49.5350311 C190.371059,48.6294365 190.850682,47.8680776 191.454411,47.2509317 C192.058141,46.6337857 192.762482,46.1642252 193.567455,45.842236 C194.372428,45.5202468 195.231053,45.3592547 196.143355,45.3592547 C196.720253,45.3592547 197.240123,45.3995027 197.702983,45.48 C198.165842,45.5604973 198.568323,45.6544094 198.910436,45.7617391 C199.25255,45.8690689 199.530932,45.976397 199.745591,46.0837267 C199.960251,46.1910564 200.107827,46.2715525 200.188324,46.3252174 L199.624846,47.9351553 C199.5041,47.854658 199.329692,47.7674539 199.101616,47.6735404 C198.873541,47.5796269 198.615282,47.4857148 198.326834,47.3918012 C198.038385,47.2978877 197.723109,47.2207456 197.380995,47.1603727 C197.038882,47.0999997 196.693419,47.0698137 196.344598,47.0698137 C195.606706,47.0698137 194.942613,47.1972658 194.3523,47.4521739 C193.761986,47.707082 193.258885,48.0760224 192.842983,48.5590062 C192.42708,49.04199 192.10845,49.6289406 191.887082,50.3198758 C191.665715,51.0108109 191.555032,51.7855858 191.555032,52.6442236 C191.555032,53.476029 191.652299,54.2340338 191.846834,54.9182609 C192.041369,55.6024879 192.333167,56.1894385 192.722237,56.6791304 C193.111308,57.1688223 193.597638,57.5478247 194.181244,57.8161491 C194.764849,58.0844734 195.445712,58.2186335 196.223852,58.2186335 C197.122739,58.2186335 197.867328,58.1247214 198.457641,57.9368944 C199.047955,57.7490674 199.490683,57.5813672 199.78584,57.4337888 L200.288946,59.0437267 C200.195032,59.1108078 200.027332,59.1946579 199.78584,59.2952795 C199.544348,59.3959011 199.242488,59.4931672 198.88025,59.5870807 C198.518012,59.6809943 198.095408,59.7614903 197.612424,59.8285714 C197.12944,59.8956525 196.606215,59.9291925 196.042734,59.9291925 Z M217.669567,45.6812422 L219.621616,45.6812422 L219.621616,59.6273292 L217.669567,59.6273292 L217.669567,53.1875776 L210.847455,53.1875776 L210.847455,59.6273292 L208.895405,59.6273292 L208.895405,45.6812422 L210.847455,45.6812422 L210.847455,51.4971429 L217.669567,51.4971429 L217.669567,45.6812422 Z M234.647704,59.9291925 C233.735401,59.9291925 232.943856,59.7883244 232.273045,59.5065839 C231.602234,59.2248433 231.052178,58.8391329 230.622859,58.349441 C230.19354,57.8597491 229.87491,57.2795065 229.666958,56.6086957 C229.459007,55.9378848 229.355033,55.21342 229.355033,54.4352795 L229.355033,45.6812422 L231.307082,45.6812422 L231.307082,54.213913 C231.307082,55.6091995 231.615651,56.6221086 232.232797,57.2526708 C232.849943,57.883233 233.654904,58.1985093 234.647704,58.1985093 C235.144104,58.1985093 235.596894,58.1213672 236.006089,57.9670807 C236.415283,57.8127943 236.767454,57.57466 237.06261,57.2526708 C237.357767,56.9306816 237.585839,56.5181392 237.746834,56.0150311 C237.907829,55.511923 237.988325,54.9115563 237.988325,54.213913 L237.988325,45.6812422 L239.940374,45.6812422 L239.940374,54.4352795 C239.940374,55.21342 239.8364,55.9378848 239.628449,56.6086957 C239.420498,57.2795065 239.098513,57.8597491 238.662486,58.349441 C238.226459,58.8391329 237.676403,59.2248433 237.0123,59.5065839 C236.348197,59.7883244 235.560006,59.9291925 234.647704,59.9291925 Z M256.495902,53.7913043 C256.710562,54.0596287 256.982236,54.4117991 257.310934,54.8478261 C257.639631,55.2838531 257.978385,55.7668296 258.327207,56.2967702 C258.676028,56.8267107 259.021491,57.3801213 259.363604,57.9570186 C259.705718,58.5339159 259.997516,59.0906805 260.239008,59.6273292 L258.10584,59.6273292 C257.837516,59.117513 257.545718,58.6009964 257.230437,58.077764 C256.915156,57.5545315 256.596525,57.054785 256.274536,56.5785093 C255.952547,56.1022336 255.633916,55.6561511 255.318635,55.2402484 C255.003354,54.8243457 254.718264,54.4621133 254.463356,54.1535404 C254.288945,54.1669566 254.111183,54.1736646 253.930064,54.1736646 L251.62584,54.1736646 L251.62584,59.6273292 L249.673791,59.6273292 L249.673791,45.8824845 C250.223856,45.7483223 250.837638,45.6577642 251.515157,45.6108075 C252.192676,45.5638507 252.813167,45.5403727 253.376648,45.5403727 C255.335415,45.5403727 256.827947,45.9093131 257.854288,46.647205 C258.880628,47.3850969 259.393791,48.4852101 259.393791,49.9475776 C259.393791,50.8732966 259.148948,51.6648414 258.659257,52.322236 C258.169565,52.9796306 257.448454,53.4693152 256.495902,53.7913043 Z M253.537642,47.2509317 C252.705836,47.2509317 252.068575,47.2710557 251.62584,47.3113043 L251.62584,52.5637267 L253.014412,52.5637267 C253.685223,52.5637267 254.288943,52.5301867 254.825592,52.4631056 C255.362241,52.3960245 255.815031,52.2685724 256.183977,52.0807453 C256.552923,51.8929183 256.838013,51.627952 257.039257,51.2858385 C257.2405,50.943725 257.34112,50.4909345 257.34112,49.9274534 C257.34112,49.404221 257.2405,48.9682005 257.039257,48.6193789 C256.838013,48.2705573 256.566339,47.995529 256.224225,47.7942857 C255.882112,47.5930425 255.479631,47.4521743 255.016772,47.371677 C254.553913,47.2911797 254.060874,47.2509317 253.537642,47.2509317 Z M274.48025,59.9291925 C273.500867,59.9291925 272.608702,59.7682004 271.803729,59.4462112 C270.998756,59.124222 270.307831,58.6546615 269.730934,58.0375155 C269.154036,57.4203696 268.707954,56.6590107 268.392673,55.7534161 C268.077392,54.8478216 267.919754,53.8114344 267.919754,52.6442236 C267.919754,51.4770128 268.097516,50.4406256 268.453045,49.5350311 C268.808575,48.6294365 269.288198,47.8680776 269.891927,47.2509317 C270.495657,46.6337857 271.199998,46.1642252 272.004971,45.842236 C272.809944,45.5202468 273.668569,45.3592547 274.580872,45.3592547 C275.157769,45.3592547 275.677639,45.3995027 276.140499,45.48 C276.603358,45.5604973 277.005839,45.6544094 277.347952,45.7617391 C277.690066,45.8690689 277.968448,45.976397 278.183108,46.0837267 C278.397767,46.1910564 278.545343,46.2715525 278.62584,46.3252174 L278.062362,47.9351553 C277.941616,47.854658 277.767208,47.7674539 277.539132,47.6735404 C277.311057,47.5796269 277.052798,47.4857148 276.76435,47.3918012 C276.475901,47.2978877 276.160625,47.2207456 275.818511,47.1603727 C275.476398,47.0999997 275.130935,47.0698137 274.782114,47.0698137 C274.044222,47.0698137 273.380129,47.1972658 272.789816,47.4521739 C272.199502,47.707082 271.696402,48.0760224 271.280499,48.5590062 C270.864596,49.04199 270.545966,49.6289406 270.324598,50.3198758 C270.103231,51.0108109 269.992549,51.7855858 269.992549,52.6442236 C269.992549,53.476029 270.089815,54.2340338 270.28435,54.9182609 C270.478885,55.6024879 270.770683,56.1894385 271.159754,56.6791304 C271.548824,57.1688223 272.035154,57.5478247 272.61876,57.8161491 C273.202365,58.0844734 273.883228,58.2186335 274.661368,58.2186335 C275.560255,58.2186335 276.304844,58.1247214 276.895157,57.9368944 C277.485471,57.7490674 277.928199,57.5813672 278.223356,57.4337888 L278.726462,59.0437267 C278.632548,59.1108078 278.464848,59.1946579 278.223356,59.2952795 C277.981864,59.3959011 277.680004,59.4931672 277.317766,59.5870807 C276.955528,59.6809943 276.532924,59.7614903 276.04994,59.8285714 C275.566956,59.8956525 275.043732,59.9291925 274.48025,59.9291925 Z M296.107083,45.6812422 L298.059133,45.6812422 L298.059133,59.6273292 L296.107083,59.6273292 L296.107083,53.1875776 L289.284971,53.1875776 L289.284971,59.6273292 L287.332921,59.6273292 L287.332921,45.6812422 L289.284971,45.6812422 L289.284971,51.4971429 L296.107083,51.4971429 L296.107083,45.6812422 Z" id="community-church"></path>
            <path d="M30.2459627,1.11055901 L30.2459627,8.04968944 L19.3416149,8.04968944 L19.3416149,37.2670807 L11.2024845,37.2670807 L11.2024845,8.04968944 L0.298136646,8.04968944 L0.298136646,1.11055901 L30.2459627,1.11055901 Z M56.0645963,37.2670807 C55.6819856,36.0149006 55.255903,34.7279569 54.7863354,33.4062112 C54.3167678,32.0844654 53.8559029,30.7627395 53.4037267,29.4409938 L39.3167702,29.4409938 C38.864594,30.7627395 38.403729,32.0844654 37.9341615,33.4062112 C37.4645939,34.7279569 37.0385112,36.0149006 36.6559006,37.2670807 L28.2037267,37.2670807 C29.5602552,33.3714091 30.8471989,29.7714451 32.0645963,26.4670807 C33.2819936,23.1627164 34.4732861,20.049704 35.6385093,17.1279503 C36.8037325,14.2061966 37.9515471,11.4323113 39.0819876,8.80621118 C40.212428,6.18011109 41.3863293,3.61491935 42.6037267,1.11055901 L50.3776397,1.11055901 C51.5602543,3.61491935 52.7254601,6.18011109 53.8732919,8.80621118 C55.0211237,11.4323113 56.1776339,14.2061966 57.3428571,17.1279503 C58.5080803,20.049704 59.6993728,23.1627164 60.9167702,26.4670807 C62.1341676,29.7714451 63.4211112,33.3714091 64.7776397,37.2670807 L56.0645963,37.2670807 Z M46.3080745,9.30186335 C46.1341606,9.82360509 45.8732936,10.5366414 45.5254658,11.4409938 C45.177638,12.3453461 44.777642,13.388814 44.3254658,14.5714286 C43.8732896,15.7540432 43.3776424,17.058378 42.8385093,18.484472 C42.2993762,19.9105661 41.7515556,21.4062034 41.195031,22.9714286 L51.4732919,22.9714286 C50.9167674,21.4062034 50.3776423,19.9105661 49.8559006,18.484472 C49.3341589,17.058378 48.8385116,15.7540432 48.3689441,14.5714286 C47.8993765,13.388814 47.490685,12.3453461 47.1428571,11.4409938 C46.7950293,10.5366414 46.5167712,9.82360509 46.3080745,9.30186335 Z M94.3006211,30.2757764 L94.3006211,37.2670807 L70.1440993,37.2670807 L70.1440993,1.11055901 L78.2832298,1.11055901 L78.2832298,30.2757764 L94.3006211,30.2757764 Z M124.345342,30.2757764 L124.345342,37.2670807 L100.18882,37.2670807 L100.18882,1.11055901 L108.32795,1.11055901 L108.32795,30.2757764 L124.345342,30.2757764 Z M146.824845,7.37142857 C143.033521,7.37142857 140.294418,8.42359196 138.607453,10.5279503 C136.920488,12.6323087 136.077019,15.5105407 136.077019,19.1627329 C136.077019,20.9366548 136.285712,22.5453344 136.703106,23.9888199 C137.120499,25.4323054 137.74658,26.6757712 138.581366,27.7192547 C139.416153,28.7627381 140.459621,29.5714257 141.711801,30.1453416 C142.963981,30.7192575 144.424836,31.0062112 146.09441,31.0062112 C146.998762,31.0062112 147.772668,30.98882 148.416149,30.9540373 C149.05963,30.9192545 149.624842,30.84969 150.111801,30.7453416 L150.111801,18.1714286 L158.250932,18.1714286 L158.250932,36.0670807 C157.277014,36.4496914 155.711812,36.8583829 153.555279,37.2931677 C151.398747,37.7279525 148.737904,37.9453416 145.572671,37.9453416 C142.859614,37.9453416 140.398769,37.5279545 138.190062,36.6931677 C135.981355,35.8583809 134.094418,34.6410018 132.529192,33.0409938 C130.963967,31.4409858 129.755284,29.475788 128.903106,27.1453416 C128.050927,24.8148952 127.624845,22.1540522 127.624845,19.1627329 C127.624845,16.1366308 128.094405,13.4583967 129.03354,11.1279503 C129.972675,8.79750388 131.259619,6.82361057 132.89441,5.20621118 C134.529201,3.58881179 136.450921,2.36273709 138.659627,1.52795031 C140.868334,0.693163528 143.224832,0.275776398 145.729192,0.275776398 C147.433549,0.275776398 148.972664,0.388818745 150.346584,0.614906832 C151.720504,0.840994919 152.903101,1.10186188 153.89441,1.39751553 C154.885719,1.69316918 155.703102,1.99751396 156.346584,2.31055901 C156.990065,2.62360405 157.45093,2.86707988 157.729192,3.04099379 L155.381366,9.56273292 C154.268317,8.97142561 152.990069,8.45838727 151.546584,8.02360248 C150.103098,7.5888177 148.529201,7.37142857 146.824845,7.37142857 Z M177.078261,0.693167702 C182.504375,0.693167702 186.660855,1.65837544 189.547826,3.58881988 C192.434797,5.51926431 193.878261,8.51923431 193.878261,12.5888199 C193.878261,15.127963 193.295658,17.188812 192.130435,18.7714286 C190.965211,20.3540452 189.286967,21.597511 187.095652,22.5018634 C187.826091,23.4062157 188.5913,24.440988 189.391304,25.6062112 C190.191308,26.7714344 190.982605,27.9888135 191.765217,29.2583851 C192.54783,30.5279567 193.304344,31.8496826 194.034783,33.2236025 C194.765221,34.5975224 195.443475,35.945335 196.069565,37.2670807 L186.93913,37.2670807 C186.278257,36.0844661 185.608699,34.8844781 184.930435,33.6670807 C184.25217,32.4496834 183.556525,31.2670865 182.843478,30.1192547 C182.130431,28.9714228 181.42609,27.8844772 180.730435,26.8583851 C180.034779,25.832293 179.339134,24.9018675 178.643478,24.0670807 L174.626087,24.0670807 L174.626087,37.2670807 L166.486956,37.2670807 L166.486956,1.63229814 C168.260878,1.28447031 170.095643,1.04099448 171.991304,0.901863354 C173.886966,0.762732224 175.582601,0.693167702 177.078261,0.693167702 Z M177.547826,7.63229814 C176.956519,7.63229814 176.426089,7.64968927 175.956522,7.68447205 C175.486954,7.71925483 175.04348,7.75403709 174.626087,7.78881988 L174.626087,17.5975155 L176.921739,17.5975155 C179.982624,17.5975155 182.173906,17.2149107 183.495652,16.4496894 C184.817398,15.6844682 185.478261,14.3801334 185.478261,12.536646 C185.478261,10.762724 184.808702,9.50186709 183.469565,8.75403727 C182.130428,8.00620744 180.156535,7.63229814 177.547826,7.63229814 Z M227.783851,37.2670807 C227.40124,36.0149006 226.975158,34.7279569 226.50559,33.4062112 C226.036022,32.0844654 225.575157,30.7627395 225.122981,29.4409938 L211.036025,29.4409938 C210.583849,30.7627395 210.122984,32.0844654 209.653416,33.4062112 C209.183848,34.7279569 208.757766,36.0149006 208.375155,37.2670807 L199.922981,37.2670807 C201.27951,33.3714091 202.566453,29.7714451 203.783851,26.4670807 C205.001248,23.1627164 206.192541,20.049704 207.357764,17.1279503 C208.522987,14.2061966 209.670802,11.4323113 210.801242,8.80621118 C211.931683,6.18011109 213.105584,3.61491935 214.322981,1.11055901 L222.096894,1.11055901 C223.279509,3.61491935 224.444715,6.18011109 225.592546,8.80621118 C226.740378,11.4323113 227.896888,14.2061966 229.062112,17.1279503 C230.227335,20.049704 231.418627,23.1627164 232.636025,26.4670807 C233.853422,29.7714451 235.140366,33.3714091 236.496894,37.2670807 L227.783851,37.2670807 Z M218.027329,9.30186335 C217.853415,9.82360509 217.592548,10.5366414 217.24472,11.4409938 C216.896893,12.3453461 216.496897,13.388814 216.04472,14.5714286 C215.592544,15.7540432 215.096897,17.058378 214.557764,18.484472 C214.018631,19.9105661 213.47081,21.4062034 212.914286,22.9714286 L223.192546,22.9714286 C222.636022,21.4062034 222.096897,19.9105661 221.575155,18.484472 C221.053413,17.058378 220.557766,15.7540432 220.088199,14.5714286 C219.618631,13.388814 219.20994,12.3453461 218.862112,11.4409938 C218.514284,10.5366414 218.236026,9.82360509 218.027329,9.30186335 Z M252.715528,31.0583851 C253.86336,31.0583851 254.811176,30.9627339 255.559006,30.7714286 C256.306836,30.5801233 256.90683,30.3192563 257.359006,29.9888199 C257.811182,29.6583834 258.124223,29.267083 258.298137,28.8149068 C258.47205,28.3627307 258.559006,27.8583879 258.559006,27.3018634 C258.559006,26.1192487 258.00249,25.1366499 256.889441,24.3540373 C255.776392,23.5714247 253.863367,22.7279548 251.15031,21.8236025 C249.967696,21.4062091 248.785099,20.927953 247.602484,20.3888199 C246.41987,19.8496867 245.359011,19.1714327 244.419876,18.3540373 C243.480741,17.5366419 242.715531,16.5453474 242.124223,15.3801242 C241.532916,14.214901 241.237267,12.7975239 241.237267,11.1279503 C241.237267,9.45837675 241.550307,7.95404396 242.176397,6.61490683 C242.802487,5.2757697 243.689435,4.13665066 244.837267,3.19751553 C245.985099,2.2583804 247.376389,1.53664848 249.01118,1.03229814 C250.645971,0.527947789 252.489431,0.275776398 254.541615,0.275776398 C256.97641,0.275776398 259.080736,0.536643354 260.854658,1.05838509 C262.62858,1.58012683 264.089435,2.15403414 265.237267,2.78012422 L262.889441,9.19751553 C261.88074,8.67577379 260.759012,8.21490883 259.524223,7.81490683 C258.289435,7.41490483 256.802493,7.21490683 255.063354,7.21490683 C253.115518,7.21490683 251.715532,7.48446935 250.863354,8.02360248 C250.011176,8.56273561 249.585093,9.38881431 249.585093,10.5018634 C249.585093,11.1627362 249.741613,11.7192524 250.054658,12.1714286 C250.367703,12.6236047 250.811177,13.0322963 251.385093,13.3975155 C251.959009,13.7627347 252.619872,14.0931662 253.367702,14.3888199 C254.115532,14.6844735 254.94161,14.9888183 255.845963,15.3018634 C257.724233,15.997519 259.358999,16.6844687 260.75031,17.3627329 C262.141622,18.0409972 263.298132,18.8322936 264.219876,19.736646 C265.141619,20.6409983 265.828569,21.7018573 266.280745,22.9192547 C266.732921,24.136652 266.959006,25.6148981 266.959006,27.3540373 C266.959006,30.7279672 265.776409,33.3453323 263.41118,35.2062112 C261.045951,37.06709 257.480769,37.9975155 252.715528,37.9975155 C251.11552,37.9975155 249.672056,37.9018643 248.385093,37.710559 C247.09813,37.5192537 245.959011,37.2844734 244.967702,37.0062112 C243.976392,36.7279489 243.124227,36.4322997 242.41118,36.1192547 C241.698133,35.8062096 241.098139,35.5105604 240.61118,35.2322981 L242.906832,28.7627329 C243.985098,29.3540402 245.31552,29.8844697 246.898137,30.3540373 C248.480753,30.8236048 250.419864,31.0583851 252.715528,31.0583851 Z M283.751553,31.0583851 C284.899384,31.0583851 285.847201,30.9627339 286.595031,30.7714286 C287.342861,30.5801233 287.942855,30.3192563 288.395031,29.9888199 C288.847207,29.6583834 289.160247,29.267083 289.334161,28.8149068 C289.508075,28.3627307 289.595031,27.8583879 289.595031,27.3018634 C289.595031,26.1192487 289.038515,25.1366499 287.925466,24.3540373 C286.812417,23.5714247 284.899392,22.7279548 282.186335,21.8236025 C281.003721,21.4062091 279.821124,20.927953 278.638509,20.3888199 C277.455895,19.8496867 276.395036,19.1714327 275.4559,18.3540373 C274.516765,17.5366419 273.751556,16.5453474 273.160248,15.3801242 C272.568941,14.214901 272.273292,12.7975239 272.273292,11.1279503 C272.273292,9.45837675 272.586332,7.95404396 273.212422,6.61490683 C273.838512,5.2757697 274.72546,4.13665066 275.873292,3.19751553 C277.021124,2.2583804 278.412414,1.53664848 280.047205,1.03229814 C281.681996,0.527947789 283.525455,0.275776398 285.57764,0.275776398 C288.012434,0.275776398 290.116761,0.536643354 291.890683,1.05838509 C293.664605,1.58012683 295.12546,2.15403414 296.273292,2.78012422 L293.925466,9.19751553 C292.916765,8.67577379 291.795037,8.21490883 290.560248,7.81490683 C289.32546,7.41490483 287.838518,7.21490683 286.099379,7.21490683 C284.151543,7.21490683 282.751557,7.48446935 281.899379,8.02360248 C281.047201,8.56273561 280.621118,9.38881431 280.621118,10.5018634 C280.621118,11.1627362 280.777638,11.7192524 281.090683,12.1714286 C281.403728,12.6236047 281.847202,13.0322963 282.421118,13.3975155 C282.995034,13.7627347 283.655897,14.0931662 284.403727,14.3888199 C285.151556,14.6844735 285.977635,14.9888183 286.881987,15.3018634 C288.760258,15.997519 290.395024,16.6844687 291.786335,17.3627329 C293.177647,18.0409972 294.334157,18.8322936 295.2559,19.736646 C296.177644,20.6409983 296.864594,21.7018573 297.31677,22.9192547 C297.768946,24.136652 297.995031,25.6148981 297.995031,27.3540373 C297.995031,30.7279672 296.812434,33.3453323 294.447205,35.2062112 C292.081976,37.06709 288.516794,37.9975155 283.751553,37.9975155 C282.151545,37.9975155 280.708081,37.9018643 279.421118,37.710559 C278.134155,37.5192537 276.995036,37.2844734 276.003727,37.0062112 C275.012417,36.7279489 274.160252,36.4322997 273.447205,36.1192547 C272.734158,35.8062096 272.134164,35.5105604 271.647205,35.2322981 L273.942857,28.7627329 C275.021123,29.3540402 276.351545,29.8844697 277.934161,30.3540373 C279.516778,30.8236048 281.455889,31.0583851 283.751553,31.0583851 Z" id="tallgrass"></path>
        </g>
        <g id="icon">
            <path d="M47.4282147,1.34900814 L87.4282147,23.5712304 C89.0155406,24.4530781 90,26.1261811 90,27.9420167 L90,72.0579833 C90,73.8738189 89.0155406,75.5469219 87.4282147,76.4287696 L47.4282147,98.6509919 C45.918102,99.4899434 44.081898,99.4899434 42.5717853,98.6509919 L2.57178534,76.4287696 C0.984459418,75.5469219 2.13162821e-14,73.8738189 2.13162821e-14,72.0579833 L0,27.9420167 C-2.66453526e-15,26.1261811 0.984459418,24.4530781 2.57178534,23.5712304 L42.5717853,1.34900814 C44.081898,0.51005665 45.918102,0.51005665 47.4282147,1.34900814 Z" id="bg" fill="#F8C76E"></path>
            <path d="M90,37.1613248 L90,72.0579833 C90,73.8738189 89.0155406,75.5469219 87.4282147,76.4287696 L47.4282147,98.6509919 C45.918102,99.4899434 44.081898,99.4899434 42.5717853,98.6509919 L2.57178534,76.4287696 C2.17878883,76.2104382 1.82274674,75.9436046 1.50945025,75.6381109 L90,37.1613248 Z" id="hill-3" fill="#1B778F"></path>
            <path d="M90,66.4739923 L90,72.0579833 C90,73.8738189 89.0155406,75.5469219 87.4282147,76.4287696 L47.4282147,98.6509919 C45.918102,99.4899434 44.081898,99.4899434 42.5717853,98.6509919 L2.57178534,76.4287696 C0.984459418,75.5469219 1.07579298e-14,73.8738189 1.07579298e-14,72.0579833 L0,49.7934782 L90,66.4739923 Z" id="hill-2" fill="#31B5B7"></path>
            <path d="M48.091527,67.5578486 L51.9749495,37.5559518 C60.4298194,21.1035136 61.6684787,17.3675329 60.7378742,18.7793179 C59.8072696,20.1964324 55.8454917,27.0221917 55.8454917,27.0221917 L58.0378329,20.275842 C58.0378329,20.275842 57.8207455,20.8258465 55.2060365,25.9339074 C59.0250573,16.2280854 59.8303469,10.3205993 59.8759648,9.9579267 L52.3004464,31.8184767 C52.3004464,31.8184767 53.0764869,8.49524496 52.2545602,9.19261026 C51.4323652,9.88970908 51.1814669,37.6294989 51.1814669,37.6294989 L47.1858781,67.7233296 L46.4415018,67.8589654 L45.4837948,42.601391 C45.4837948,42.601391 48.560586,6.52785941 47.57363,5.52458072 C46.5912357,4.51543957 44.7415652,34.9138513 44.7415652,34.9138513 L37.5768761,5.56988148 C37.5768761,5.56988148 37.7995986,13.4274323 41.6870462,26.9201317 C39.2666157,20.8314425 38.79863,19.5049296 38.7186645,19.2667008 L40.7282659,28.2525072 C40.7282659,28.2525072 36.4122786,18.9037618 35.3788997,16.9536971 C34.3455207,15.003366 35.4932127,20.0149629 44.4619545,42.4028671 L45.3490879,68.0580223 L39.0836075,69.2006675 L37.4400224,54.4443432 C37.4400224,54.4443432 37.7424421,28.5927958 36.9945773,27.9295393 C36.2410775,27.2660164 36.5094179,49.0077185 36.5094179,49.0077185 L29.8757744,28.4792774 C29.8757744,28.4792774 30.440631,34.0635293 33.9172494,43.4743634 C31.9307253,39.3927645 31.4968189,38.4060073 31.4055831,38.1962914 L33.3011398,44.4723126 C33.3011398,44.4723126 29.7386525,38.0318763 28.8992836,36.6997673 C28.0601831,35.3617959 29.1448151,38.8710063 36.6977928,54.3593377 L38.3191057,69.340034" id="grass" fill="#305696"></path>
            <path d="M90,58.9580458 L90,72.0579833 C90,73.8738189 89.0155406,75.5469219 87.4282147,76.4287696 L47.4282147,98.6509919 C45.918102,99.4899434 44.081898,99.4899434 42.5717853,98.6509919 L2.57178534,76.4287696 C2.08017655,76.1556536 1.64639443,75.8066408 1.28177501,75.4009969 L90,58.9580458 Z" id="hill-1" fill="#305696"></path>
        </g>
    </g>
</svg>