<?xml version="1.0" encoding="UTF-8"?>
<svg width="150px" height="50px" viewBox="0 0 150 50" version="1.1" xmlns="http://www.w3.org/2000/svg" xmlns:xlink="http://www.w3.org/1999/xlink">
    <!-- Generator: Sketch 50.2 (55047) - http://www.bohemiancoding.com/sketch -->
    <title>Artboard</title>
    <desc>Created with Sketch.</desc>
    <defs></defs>
    <g id="Artboard" stroke="none" stroke-width="1" fill="none" fill-rule="evenodd">
        <g id="logo-temp" transform="translate(4.000000, 5.000000)" fill="#333333">
            <path d="M2.3359375,32.921875 L2.3359375,34.484375 C2.3359375,36.96875 3.5078125,38.09375 5.2734375,38.09375 C6.9921875,38.09375 7.8828125,37.0390625 7.8828125,35.8515625 L9.1171875,35.8515625 C9.1171875,37.3046875 7.953125,39.2265625 5.21875,39.2265625 C2.7109375,39.2265625 1.09375,37.6171875 1.09375,34.5 L1.09375,32.8984375 C1.09375,29.84375 2.7421875,28.109375 5.234375,28.109375 C7.8359375,28.109375 9.1171875,29.984375 9.1171875,31.6796875 L7.8828125,31.6796875 C7.8828125,30.5078125 6.9609375,29.2421875 5.234375,29.2421875 C3.5234375,29.2421875 2.3359375,30.4765625 2.3359375,32.921875 Z M14.6484375,30.671875 C16.625,30.671875 18.125,31.96875 18.125,34.25 L18.125,35.546875 C18.125,37.828125 16.625,39.1328125 14.6484375,39.1328125 C12.6328125,39.1328125 11.1640625,37.8515625 11.1640625,35.546875 L11.1640625,34.25 C11.1640625,32.0546875 12.6640625,30.671875 14.6484375,30.671875 Z M14.65625,31.7578125 C13.2890625,31.7578125 12.390625,32.8203125 12.390625,34.390625 L12.390625,35.421875 C12.390625,37.03125 13.234375,38.046875 14.65625,38.046875 C16.0703125,38.046875 16.8984375,37.03125 16.8984375,35.421875 L16.8984375,34.390625 C16.8984375,32.8203125 16.03125,31.7578125 14.65625,31.7578125 Z M20.59375,39 L20.59375,30.8046875 L21.8203125,30.8046875 L21.8203125,32.09375 L21.8828125,32.09375 C22.078125,31.5234375 22.5859375,30.671875 24.1015625,30.671875 C25.34375,30.671875 26.125,31.3359375 26.390625,32.2109375 L26.4453125,32.2109375 C26.7890625,31.3984375 27.5625,30.671875 28.9453125,30.671875 C30.6328125,30.671875 31.6640625,31.5703125 31.6640625,33.21875 L31.6640625,39 L30.4375,39 L30.4375,33.546875 C30.4375,32.5 29.8359375,31.7578125 28.6484375,31.7578125 C27.5703125,31.7578125 26.7421875,32.59375 26.7421875,33.7421875 L26.7421875,39 L25.515625,39 L25.515625,33.609375 C25.515625,32.5390625 24.8359375,31.7578125 23.6875,31.7578125 C22.59375,31.7578125 21.8203125,32.5859375 21.8203125,33.7265625 L21.8203125,39 L20.59375,39 Z M34.5,39 L34.5,30.8046875 L35.7265625,30.8046875 L35.7265625,32.09375 L35.7890625,32.09375 C35.984375,31.5234375 36.4921875,30.671875 38.0078125,30.671875 C39.25,30.671875 40.03125,31.3359375 40.296875,32.2109375 L40.3515625,32.2109375 C40.6953125,31.3984375 41.46875,30.671875 42.8515625,30.671875 C44.5390625,30.671875 45.5703125,31.5703125 45.5703125,33.21875 L45.5703125,39 L44.34375,39 L44.34375,33.546875 C44.34375,32.5 43.7421875,31.7578125 42.5546875,31.7578125 C41.4765625,31.7578125 40.6484375,32.59375 40.6484375,33.7421875 L40.6484375,39 L39.421875,39 L39.421875,33.609375 C39.421875,32.5390625 38.7421875,31.7578125 37.59375,31.7578125 C36.5,31.7578125 35.7265625,32.5859375 35.7265625,33.7265625 L35.7265625,39 L34.5,39 Z M54.90625,30.8046875 L54.90625,39 L53.6796875,39 L53.6796875,37.640625 L53.609375,37.640625 C53.375,38.3125 52.6015625,39.1328125 51.1640625,39.1328125 C49.5234375,39.1328125 48.34375,38.421875 48.34375,36.53125 L48.34375,30.8046875 L49.5703125,30.8046875 L49.5703125,36.1953125 C49.5703125,37.5859375 50.40625,38.046875 51.4453125,38.046875 C52.71875,38.046875 53.6796875,37.109375 53.6796875,36.0390625 L53.6796875,30.8046875 L54.90625,30.8046875 Z M57.78125,39 L57.78125,30.8046875 L59.0078125,30.8046875 L59.0078125,32.3046875 L59.0703125,32.3046875 C59.28125,31.65625 59.828125,30.671875 61.5703125,30.671875 C63.2265625,30.671875 64.3671875,31.5546875 64.3671875,33.375 L64.3671875,39 L63.140625,39 L63.140625,33.78125 C63.140625,32.46875 62.46875,31.7578125 61.28125,31.7578125 C59.734375,31.7578125 59.0078125,32.953125 59.0078125,34.4296875 L59.0078125,39 L57.78125,39 Z M67.4140625,39 L67.4140625,30.8046875 L68.640625,30.8046875 L68.640625,39 L67.4140625,39 Z M67.1015625,28.25 C67.1015625,27.7109375 67.5078125,27.3203125 68.015625,27.3203125 C68.5546875,27.3203125 68.953125,27.7109375 68.953125,28.25 C68.953125,28.7734375 68.5546875,29.1640625 68.015625,29.1640625 C67.5078125,29.1640625 67.1015625,28.7734375 67.1015625,28.25 Z M72.140625,30.8046875 L72.140625,28.7421875 L73.3671875,28.7421875 L73.3671875,30.8046875 L75.2265625,30.8046875 L75.2265625,31.828125 L73.3671875,31.828125 L73.3671875,36.7734375 C73.3671875,37.78125 73.6875,38.03125 74.7265625,38.03125 C74.9140625,38.03125 75.234375,38.0078125 75.359375,37.9921875 L75.359375,39.015625 C75.25,39.0390625 74.671875,39.078125 74.4140625,39.078125 C72.4921875,39.078125 72.140625,38.3125 72.140625,36.7109375 L72.140625,31.828125 L70.890625,31.828125 L70.890625,30.8046875 L72.140625,30.8046875 Z M84.2265625,30.8046875 L81.265625,39.0859375 L81.0546875,39.65625 C80.6171875,40.84375 80.0703125,42.0078125 78.4140625,42.0078125 C78.140625,42.0078125 77.828125,41.9765625 77.625,41.9453125 L77.625,40.90625 C77.75,40.9296875 78.0390625,40.9453125 78.21875,40.9453125 C79.1875,40.9453125 79.6015625,40.4609375 79.84375,39.6015625 L79.9765625,39.1328125 L76.921875,30.8046875 L78.2890625,30.8046875 L80.578125,37.7265625 L80.6328125,37.7265625 L82.921875,30.8046875 L84.2265625,30.8046875 Z M90.8203125,32.921875 L90.8203125,34.484375 C90.8203125,36.96875 91.9921875,38.09375 93.7578125,38.09375 C95.4765625,38.09375 96.3671875,37.0390625 96.3671875,35.8515625 L97.6015625,35.8515625 C97.6015625,37.3046875 96.4375,39.2265625 93.703125,39.2265625 C91.1953125,39.2265625 89.578125,37.6171875 89.578125,34.5 L89.578125,32.8984375 C89.578125,29.84375 91.2265625,28.109375 93.71875,28.109375 C96.3203125,28.109375 97.6015625,29.984375 97.6015625,31.6796875 L96.3671875,31.6796875 C96.3671875,30.5078125 95.4453125,29.2421875 93.71875,29.2421875 C92.0078125,29.2421875 90.8203125,30.4765625 90.8203125,32.921875 Z M100.078125,39 L100.078125,27.4609375 L101.304688,27.4609375 L101.304688,32.3046875 L101.367188,32.3046875 C101.53125,31.7421875 102.195312,30.671875 103.929688,30.671875 C105.515625,30.671875 106.695312,31.5703125 106.695312,33.390625 L106.695312,39 L105.46875,39 L105.46875,33.796875 C105.46875,32.484375 104.742188,31.7578125 103.5625,31.7578125 C102.0625,31.7578125 101.304688,32.9453125 101.304688,34.4296875 L101.304688,39 L100.078125,39 Z M116.03125,30.8046875 L116.03125,39 L114.804688,39 L114.804688,37.640625 L114.734375,37.640625 C114.5,38.3125 113.726562,39.1328125 112.289062,39.1328125 C110.648438,39.1328125 109.46875,38.421875 109.46875,36.53125 L109.46875,30.8046875 L110.695312,30.8046875 L110.695312,36.1953125 C110.695312,37.5859375 111.53125,38.046875 112.570312,38.046875 C113.84375,38.046875 114.804688,37.109375 114.804688,36.0390625 L114.804688,30.8046875 L116.03125,30.8046875 Z M119.046875,39 L119.046875,30.8046875 L120.273438,30.8046875 L120.273438,32.0625 L120.335938,32.0625 C120.546875,31.5234375 121.140625,30.6796875 122.632812,30.6796875 C122.78125,30.6796875 122.945312,30.6953125 123.109375,30.7109375 L123.109375,31.8515625 C122.976562,31.828125 122.71875,31.8203125 122.484375,31.8203125 C121.015625,31.8203125 120.273438,32.7109375 120.273438,33.8203125 L120.273438,39 L119.046875,39 Z M124.648438,35.609375 L124.648438,34.171875 C124.648438,32.0546875 125.9375,30.671875 128.007812,30.671875 C130.03125,30.671875 131.046875,31.9296875 131.085938,33.0703125 L129.859375,33.0703125 C129.765625,32.609375 129.382812,31.7890625 128.023438,31.7890625 C126.601562,31.7890625 125.875,32.7421875 125.875,34.2265625 L125.875,35.625 C125.875,37.078125 126.6875,38.015625 128.023438,38.015625 C129.296875,38.015625 129.765625,37.4453125 129.921875,36.8359375 L131.148438,36.8359375 C131.09375,37.9375 130.148438,39.1328125 128.007812,39.1328125 C125.9375,39.1328125 124.648438,37.765625 124.648438,35.609375 Z M133.484375,39 L133.484375,27.4609375 L134.710938,27.4609375 L134.710938,32.3046875 L134.773438,32.3046875 C134.9375,31.7421875 135.601562,30.671875 137.335938,30.671875 C138.921875,30.671875 140.101562,31.5703125 140.101562,33.390625 L140.101562,39 L138.875,39 L138.875,33.796875 C138.875,32.484375 138.148438,31.7578125 136.96875,31.7578125 C135.46875,31.7578125 134.710938,32.9453125 134.710938,34.4296875 L134.710938,39 L133.484375,39 Z" id="Community-Church"></path>
            <path d="M8.35546875,17 L4.95703125,17 L4.95703125,3.93359375 L0.48046875,3.93359375 L0.48046875,1.00390625 L12.8320312,1.00390625 L12.8320312,3.93359375 L8.35546875,3.93359375 L8.35546875,17 Z M15.8085938,17 L12.421875,17 L17.71875,1.00390625 L21.75,1.00390625 L27.0234375,17 L23.390625,17 L22.21875,13.1210938 L17.0039062,13.1210938 L15.8085938,17 Z M19.7109375,4.2734375 L19.546875,4.2734375 L17.671875,10.53125 L21.5625,10.53125 L19.7109375,4.2734375 Z M39.5039062,14.0234375 L39.5039062,17 L29.4375,17 L29.4375,1.00390625 L32.8359375,1.00390625 L32.8359375,14.0234375 L39.5039062,14.0234375 Z M52.1835938,14.0234375 L52.1835938,17 L42.1171875,17 L42.1171875,1.00390625 L45.515625,1.00390625 L45.515625,14.0234375 L52.1835938,14.0234375 Z M67.0664062,6.20703125 L63.7617188,6.20703125 C63.5625,4.6015625 62.3085938,3.640625 60.6210938,3.640625 C58.6054688,3.640625 57.1640625,5.0234375 57.1640625,8 L57.1640625,9.921875 C57.1640625,12.4765625 58.1484375,14.375 60.65625,14.375 C62.6367188,14.375 63.8671875,13.1445312 63.8671875,11.6796875 L63.8671875,10.8359375 L60.7382812,10.8359375 L60.7382812,8.29296875 L67.0898438,8.29296875 L67.0898438,11.4335938 C67.0898438,14.0820312 65.4023438,17.3046875 60.609375,17.3046875 C55.8398438,17.3046875 53.7421875,14.1054688 53.7421875,9.93359375 L53.7421875,7.96484375 C53.7421875,3.59375 56.3085938,0.7109375 60.6679688,0.7109375 C64.8867188,0.7109375 66.9609375,3.4296875 67.0664062,6.20703125 Z M76.875,1.00390625 C80.71875,1.00390625 82.5703125,3.23046875 82.5703125,6.16015625 C82.5703125,8.796875 80.8476562,10.203125 79.6757812,10.6601562 L82.8867188,17 L79.1132812,17 L76.3359375,11.1757812 L73.6992188,11.1757812 L73.6992188,17 L70.359375,17 L70.359375,1.00390625 L76.875,1.00390625 Z M73.6992188,8.59765625 L76.3359375,8.59765625 C78.0234375,8.59765625 79.078125,7.7890625 79.078125,6.20703125 C79.078125,4.54296875 77.9296875,3.7109375 76.3828125,3.7109375 L73.6992188,3.7109375 L73.6992188,8.59765625 Z M87.7382812,17 L84.3515625,17 L89.6484375,1.00390625 L93.6796875,1.00390625 L98.953125,17 L95.3203125,17 L94.1484375,13.1210938 L88.9335938,13.1210938 L87.7382812,17 Z M91.640625,4.2734375 L91.4765625,4.2734375 L89.6015625,10.53125 L93.4921875,10.53125 L91.640625,4.2734375 Z M100.230469,12.3828125 L103.488281,12.3828125 C103.582031,13.5195312 104.648438,14.5507812 106.675781,14.5507812 C108.5625,14.5507812 109.570312,13.7304688 109.570312,12.546875 C109.570312,11.4804688 108.75,10.9765625 107.132812,10.625 L104.730469,10.0976562 C102.480469,9.6171875 100.605469,8.3515625 100.605469,5.609375 C100.605469,2.4453125 103.277344,0.6875 106.664062,0.6875 C110.238281,0.6875 112.640625,2.71484375 112.675781,5.50390625 L109.511719,5.50390625 C109.429688,4.42578125 108.503906,3.40625 106.652344,3.40625 C105.011719,3.40625 103.992188,4.15625 103.992188,5.328125 C103.992188,6.2421875 104.742188,6.828125 106.171875,7.109375 L108.597656,7.63671875 C110.941406,8.1171875 112.921875,9.25390625 112.921875,12.1953125 C112.921875,15.3359375 110.472656,17.3046875 106.511719,17.3046875 C101.800781,17.3046875 100.277344,14.65625 100.230469,12.3828125 Z M115.101562,12.3828125 L118.359375,12.3828125 C118.453125,13.5195312 119.519531,14.5507812 121.546875,14.5507812 C123.433594,14.5507812 124.441406,13.7304688 124.441406,12.546875 C124.441406,11.4804688 123.621094,10.9765625 122.003906,10.625 L119.601562,10.0976562 C117.351562,9.6171875 115.476562,8.3515625 115.476562,5.609375 C115.476562,2.4453125 118.148438,0.6875 121.535156,0.6875 C125.109375,0.6875 127.511719,2.71484375 127.546875,5.50390625 L124.382812,5.50390625 C124.300781,4.42578125 123.375,3.40625 121.523438,3.40625 C119.882812,3.40625 118.863281,4.15625 118.863281,5.328125 C118.863281,6.2421875 119.613281,6.828125 121.042969,7.109375 L123.46875,7.63671875 C125.8125,8.1171875 127.792969,9.25390625 127.792969,12.1953125 C127.792969,15.3359375 125.34375,17.3046875 121.382812,17.3046875 C116.671875,17.3046875 115.148438,14.65625 115.101562,12.3828125 Z" id="Tallgrass"></path>
        </g>
    </g>
</svg>