<?xml version="1.0" encoding="UTF-8"?>
<svg width="390px" height="100px" viewBox="0 0 390 100" version="1.1" xmlns="http://www.w3.org/2000/svg" xmlns:xlink="http://www.w3.org/1999/xlink">
  <title>Tallgrass Community Church</title>
  <style>
    #top-left { fill: rgba(44, 95, 177, .8); }
    #top-right { fill: rgba(5, 128, 158, .8); }
    #bottom-right { fill: rgba(25, 189, 198, .8); }
    #bottom-left { fill: rgba(255, 203, 109, .8); }
  </style>
  <defs>
    <rect id="path-1" x="0" y="0" width="100" height="100" rx="20"></rect>
  </defs>
  <g id="logo" stroke="none" stroke-width="1" fill="none" fill-rule="evenodd">
    <g id="text" transform="translate(110.000000, 10.000000)" fill="#2C5FB1">
      <path d="M16.6392059,6.75967739 L16.6392059,41.2340321 L9.67153843,41.2340321 L9.67153843,6.75967739 L0,6.75967739 L0,0.675967739 L26.3107443,0.675967739 L26.3107443,6.75967739 L16.6392059,6.75967739 Z M37.2902203,0.467977666 L46.9097613,0.467977666 L57.5692525,41.2340321 L50.0816099,41.2340321 L47.8457166,31.9784738 L36.4062625,31.9784738 L34.1703692,41.2340321 L26.6307291,41.2340321 L37.2902203,0.467977666 Z M42.1259896,8.42359798 L37.8621931,25.8947642 L46.3377886,25.8947642 L42.1259896,8.42359798 Z M85.3959245,41.2340321 L62.777004,41.2340321 L62.777004,0.675967739 L69.7446715,0.675967739 L69.7446715,35.1503225 L85.3959245,35.1503225 L85.3959245,41.2340321 Z M113.066604,41.2340321 L90.4476835,41.2340321 L90.4476835,0.675967739 L97.4153509,0.675967739 L97.4153509,35.1503225 L113.066604,35.1503225 L113.066604,41.2340321 Z M132.053698,41.9099998 C121.394207,41.9099998 116.350447,36.0342803 116.350447,21.9949503 L116.350447,19.9150496 C116.350447,5.87571958 121.394207,0 131.533723,0 C140.841278,0 145.677048,4.26379651 145.677048,14.143325 L145.677048,15.9112406 L138.70938,15.9112406 C138.70938,9.46354835 137.04546,6.08370966 131.949703,6.08370966 L131.481725,6.08370966 C125.502011,6.08370966 123.474107,10.7634863 123.474107,19.9150496 L123.474107,21.9949503 C123.474107,31.1465135 125.450013,35.8262902 131.845708,35.8262902 L132.313685,35.8262902 C135.173549,35.8262902 137.357445,34.8903349 138.70938,33.798387 L138.70938,25.9467617 L132.833661,25.9467617 L132.833661,19.9150496 L145.677048,19.9150496 L145.677048,37.1782257 C142.921179,39.622109 138.91737,41.9099998 132.053698,41.9099998 Z M159.828372,26.1027542 L159.828372,41.2340321 L152.860705,41.2340321 L152.860705,0.675967739 L165.548099,0.675967739 C171.891797,0.675967739 179.119452,2.5478784 179.119452,12.8433871 L179.119452,13.8833374 C179.119452,20.3830272 176.207591,23.5548758 172.515767,25.0108064 L179.119452,41.2340321 L171.579811,41.2340321 L165.756089,26.1027542 L159.828372,26.1027542 Z M159.828372,20.0190446 L165.808087,20.0190446 C168.511958,20.0190446 172.047789,19.0310917 172.047789,13.6753473 L172.047789,13.1033746 C172.047789,7.74763024 168.511958,6.75967739 165.808087,6.75967739 L159.828372,6.75967739 L159.828372,20.0190446 Z M193.634759,0.467977666 L203.2543,0.467977666 L213.913791,41.2340321 L206.426148,41.2340321 L204.190255,31.9784738 L192.750801,31.9784738 L190.514908,41.2340321 L182.975268,41.2340321 L193.634759,0.467977666 Z M198.470528,8.42359798 L194.206732,25.8947642 L202.682327,25.8947642 L198.470528,8.42359798 Z M230.405004,23.5548758 C221.565426,22.3589329 217.613615,18.9790942 217.613615,12.2714143 L217.613615,11.7514392 C217.613615,4.57578162 222.709371,0 231.496952,0 C241.116493,0 245.328292,4.5237841 245.328292,13.6753473 L245.328292,14.8712903 L238.360624,14.8712903 C238.360624,8.78758061 236.384719,6.08370966 231.54895,6.08370966 L231.080972,6.08370966 C227.233155,6.08370966 224.737275,8.21560791 224.737275,11.3874565 L224.737275,11.6994416 C224.737275,15.0272828 226.245203,16.8991935 232.640897,17.7831513 C241.480476,18.9790942 245.692275,22.1509428 245.692275,29.2746029 L245.692275,29.8465756 C245.692275,37.4382133 240.54452,41.9099998 231.496952,41.9099998 C222.189396,41.9099998 217.249632,37.3862157 217.249632,28.0786599 L217.249632,27.5586848 L224.217299,27.5586848 C224.217299,33.3304093 226.869173,35.8262902 231.236964,35.8262902 L231.704942,35.8262902 C236.072734,35.8262902 238.568614,33.4864019 238.568614,30.1065632 L238.568614,29.7945781 C238.568614,26.2587468 236.592709,24.3868361 230.405004,23.5548758 Z M263.795411,23.5548758 C254.955832,22.3589329 251.004021,18.9790942 251.004021,12.2714143 L251.004021,11.7514392 C251.004021,4.57578162 256.099778,0 264.887358,0 C274.506899,0 278.718698,4.5237841 278.718698,13.6753473 L278.718698,14.8712903 L271.751031,14.8712903 C271.751031,8.78758061 269.775125,6.08370966 264.939356,6.08370966 L264.471378,6.08370966 C260.623562,6.08370966 258.127681,8.21560791 258.127681,11.3874565 L258.127681,11.6994416 C258.127681,15.0272828 259.635609,16.8991935 266.031304,17.7831513 C274.870882,18.9790942 279.082681,22.1509428 279.082681,29.2746029 L279.082681,29.8465756 C279.082681,37.4382133 273.934927,41.9099998 264.887358,41.9099998 C255.579803,41.9099998 250.640038,37.3862157 250.640038,28.0786599 L250.640038,27.5586848 L257.607706,27.5586848 C257.607706,33.3304093 260.259579,35.8262902 264.627371,35.8262902 L265.095349,35.8262902 C269.46314,35.8262902 271.959021,33.4864019 271.959021,30.1065632 L271.959021,29.7945781 C271.959021,26.2587468 269.983115,24.3868361 263.795411,23.5548758 Z" id="tallgrass"></path>
      <rect id="divider" opacity="0.300000012" x="0" y="52" width="280" height="2"></rect>
      <text id="Community-Church" font-family="CooperHewitt-Book, Cooper Hewitt" font-size="20" font-weight="300" letter-spacing="6.0999999">
        <tspan x="0" y="79">COMMUNITY CHURC</tspan>
        <tspan x="267.119999" y="79">H</tspan>
      </text>
    </g>
    <g id="icon">
      <mask id="mask-2" fill="white">
        <use xlink:href="#path-1"></use>
      </mask>
      <use id="mask" fill="#FFFFFF" xlink:href="#path-1"></use>
      <g id="circles" mask="url(#mask-2)" opacity="0.800000012">
        <g transform="translate(-40.000000, -40.000000)">
          <circle id="bottom-left" fill="#FFCB6D" cx="50" cy="130" r="50"></circle>
          <circle id="bottom-right" fill="#19BDC6" cx="130" cy="130" r="50"></circle>
          <circle id="top-right" fill="#05809E" cx="130" cy="50" r="50"></circle>
          <circle id="top-left" fill="#2C5FB1" cx="50" cy="50" r="50"></circle>
        </g>
      </g>
    </g>
  </g>
</svg>
