<?xml version="1.0" encoding="UTF-8"?>
<svg width="391px" height="100px" viewBox="0 0 391 100" version="1.1" xmlns="http://www.w3.org/2000/svg" xmlns:xlink="http://www.w3.org/1999/xlink">
  <title>Tallgrass Church</title>
  <style>
    #top-left { fill: rgba(44, 95, 177, .8); }
    #top-right { fill: rgba(5, 128, 158, .8); }
    #bottom-right { fill: rgba(25, 189, 198, .8); }
    #bottom-left { fill: rgba(255, 203, 109, .8); }
  </style>
  <defs>
    <rect id="path-1" x="0" y="0" width="100" height="100" rx="20"></rect>
  </defs>
  <g id="logo" stroke="none" stroke-width="1" fill="none" fill-rule="evenodd">
    <g id="text" transform="translate(110.000000, 9.000000)" fill="#2C5FB1">
      <path d="M17.628,7.524 L17.628,42 L10.66,42 L10.66,7.524 L0.988,7.524 L0.988,1.44 L27.3,1.44 L27.3,7.524 L17.628,7.524 Z M38.28,1.232 L47.9,1.232 L58.56,42 L51.072,42 L48.836,32.744 L37.396,32.744 L35.16,42 L27.62,42 L38.28,1.232 Z M43.116,9.188 L38.852,26.66 L47.328,26.66 L43.116,9.188 Z M86.388,42 L63.768,42 L63.768,1.44 L70.736,1.44 L70.736,35.916 L86.388,35.916 L86.388,42 Z M114.06,42 L91.4400001,42 L91.4400001,1.44 L98.4080001,1.44 L98.4080001,35.916 L114.06,35.916 L114.06,42 Z M133.048,42.676 C122.388,42.676 117.344,36.8 117.344,22.76 L117.344,20.68 C117.344,6.64 122.388,0.764 132.528,0.764 C141.836,0.764 146.672,5.028 146.672,14.908 L146.672,16.676 L139.704,16.676 C139.704,10.228 138.04,6.848 132.944,6.848 L132.476,6.848 C126.496,6.848 124.468,11.528 124.468,20.68 L124.468,22.76 C124.468,31.912 126.444,36.592 132.84,36.592 L133.308,36.592 C136.168,36.592 138.352,35.656 139.704,34.564 L139.704,26.712 L133.828,26.712 L133.828,20.68 L146.672,20.68 L146.672,37.944 C143.916,40.388 139.912,42.676 133.048,42.676 Z M160.824,26.868 L160.824,42 L153.856,42 L153.856,1.44 L166.544,1.44 C172.888,1.44 180.116,3.312 180.116,13.608 L180.116,14.648 C180.116,21.148 177.204,24.32 173.512,25.776 L180.116,42 L172.576,42 L166.752,26.868 L160.824,26.868 Z M160.824,20.784 L166.804,20.784 C169.508,20.784 173.044,19.796 173.044,14.44 L173.044,13.868 C173.044,8.512 169.508,7.524 166.804,7.524 L160.824,7.524 L160.824,20.784 Z M194.632,1.232 L204.252,1.232 L214.912,42 L207.424,42 L205.188,32.744 L193.748,32.744 L191.512,42 L183.972,42 L194.632,1.232 Z M199.468,9.188 L195.204,26.66 L203.68,26.66 L199.468,9.188 Z M231.404,24.32 C222.564,23.124 218.612,19.744 218.612,13.036 L218.612,12.516 C218.612,5.34 223.708,0.764 232.496,0.764 C242.116,0.764 246.328,5.288 246.328,14.44 L246.328,15.636 L239.36,15.636 C239.36,9.552 237.384,6.848 232.548,6.848 L232.08,6.848 C228.232,6.848 225.736,8.98 225.736,12.152 L225.736,12.464 C225.736,15.792 227.244,17.664 233.64,18.548 C242.48,19.744 246.692,22.916 246.692,30.04 L246.692,30.612 C246.692,38.204 241.544,42.676 232.496,42.676 C223.188,42.676 218.248,38.152 218.248,28.844 L218.248,28.324 L225.216,28.324 C225.216,34.096 227.868,36.592 232.236,36.592 L232.704,36.592 C237.072,36.592 239.568,34.252 239.568,30.872 L239.568,30.56 C239.568,27.024 237.592,25.152 231.404,24.32 Z M264.796,24.32 C255.956,23.124 252.004,19.744 252.004,13.036 L252.004,12.516 C252.004,5.34 257.1,0.764 265.888,0.764 C275.508,0.764 279.72,5.288 279.72,14.44 L279.72,15.636 L272.752,15.636 C272.752,9.552 270.776,6.848 265.94,6.848 L265.472,6.848 C261.624,6.848 259.128,8.98 259.128,12.152 L259.128,12.464 C259.128,15.792 260.636,17.664 267.032,18.548 C275.872,19.744 280.084,22.916 280.084,30.04 L280.084,30.612 C280.084,38.204 274.936,42.676 265.888,42.676 C256.58,42.676 251.64,38.152 251.64,28.844 L251.64,28.324 L258.608,28.324 C258.608,34.096 261.26,36.592 265.628,36.592 L266.096,36.592 C270.464,36.592 272.96,34.252 272.96,30.872 L272.96,30.56 C272.96,27.024 270.984,25.152 264.796,24.32 Z" id="tallgrass"></path>
      <rect id="divider" opacity="0.300000012" x="1" y="54" width="280" height="2"></rect>
      <path d="M2.62,73.6 C2.62,78.04 3.8,79.92 6.42,79.92 L6.56,79.92 C8.9,79.92 9.88,78.5 9.88,75.92 L11.36,75.92 L11.36,76.12 C11.36,79.4 9.76,81.22 6.44,81.22 C2.86,81.22 1.14,79 1.14,73.6 L1.14,72.8 C1.14,67.4 2.86,65.18 6.44,65.18 C9.76,65.18 11.36,67 11.36,70.52 L11.36,71.08 L9.88,71.08 C9.88,67.86 8.9,66.48 6.56,66.48 L6.42,66.48 C3.82,66.48 2.62,68.36 2.62,72.8 L2.62,73.6 Z M25.05,81.22 C21.49,81.22 19.71,79 19.71,73.6 L19.71,72.8 C19.71,67.4 21.49,65.18 25.05,65.18 C28.63,65.18 30.41,67.4 30.41,72.8 L30.41,73.6 C30.41,79 28.63,81.22 25.05,81.22 Z M24.99,79.92 L25.13,79.92 C27.75,79.92 28.93,78.04 28.93,73.6 L28.93,72.8 C28.93,68.36 27.75,66.48 25.13,66.48 L24.99,66.48 C22.37,66.48 21.19,68.36 21.19,72.8 L21.19,73.6 C21.19,78.04 22.37,79.92 24.99,79.92 Z M50.9800001,67.9 L46.4400001,81 L45.1400001,81 L40.6000001,67.9 L40.6800001,71.38 L40.6800001,81 L39.2400001,81 L39.2400001,65.4 L41.2600001,65.4 L45.8000001,78.52 L50.3400001,65.4 L52.3600001,65.4 L52.3600001,81 L50.9200001,81 L50.9200001,71.38 L50.9800001,67.9 Z M73.2500001,67.9 L68.7100001,81 L67.4100001,81 L62.8700001,67.9 L62.9500001,71.38 L62.9500001,81 L61.5100001,81 L61.5100001,65.4 L63.5300001,65.4 L68.0700001,78.52 L72.6100001,65.4 L74.6300001,65.4 L74.6300001,81 L73.1900001,81 L73.1900001,71.38 L73.2500001,67.9 Z M88.6800002,81.22 C85.3600002,81.22 83.6800002,79.92 83.6800002,76.16 L83.6800002,65.4 L85.1200002,65.4 L85.1200002,76.06 C85.1200002,79.02 86.2800002,79.92 88.6800002,79.92 C91.0800002,79.92 92.2600002,79.02 92.2600002,76.06 L92.2600002,65.4 L93.7000002,65.4 L93.7000002,76.16 C93.7000002,79.92 92.0000002,81.22 88.6800002,81.22 Z M112.99,65.4 L112.99,81 L111.43,81 L104.05,67.84 L104.13,71.46 L104.13,81 L102.77,81 L102.77,65.4 L104.33,65.4 L111.69,78.56 L111.63,74.94 L111.63,65.4 L112.99,65.4 Z M123.7,65.4 L123.7,81 L122.26,81 L122.26,65.4 L123.7,65.4 Z M137.35,66.7 L137.35,81 L135.91,81 L135.91,66.7 L131.95,66.7 L131.95,65.4 L141.33,65.4 L141.33,66.7 L137.35,66.7 Z M154.5,76.28 L154.5,81 L153.06,81 L153.06,76.28 L148.42,65.4 L149.98,65.4 L153.78,74.5 L157.56,65.4 L159.14,65.4 L154.5,76.28 Z M178.58,73.6 C178.58,78.04 179.76,79.92 182.38,79.92 L182.52,79.92 C184.86,79.92 185.84,78.5 185.84,75.92 L187.32,75.92 L187.32,76.12 C187.32,79.4 185.72,81.22 182.4,81.22 C178.82,81.22 177.1,79 177.1,73.6 L177.1,72.8 C177.1,67.4 178.82,65.18 182.4,65.18 C185.72,65.18 187.32,67 187.32,70.52 L187.32,71.08 L185.84,71.08 C185.84,67.86 184.86,66.48 182.52,66.48 L182.38,66.48 C179.78,66.48 178.58,68.36 178.58,72.8 L178.58,73.6 Z M204.39,65.4 L205.83,65.4 L205.83,81 L204.39,81 L204.39,73.68 L197.45,73.68 L197.45,81 L196.01,81 L196.01,65.4 L197.45,65.4 L197.45,72.4 L204.39,72.4 L204.39,65.4 Z M219.9,81.22 C216.58,81.22 214.9,79.92 214.9,76.16 L214.9,65.4 L216.34,65.4 L216.34,76.06 C216.34,79.02 217.5,79.92 219.9,79.92 C222.3,79.92 223.48,79.02 223.48,76.06 L223.48,65.4 L224.92,65.4 L224.92,76.16 C224.92,79.92 223.22,81.22 219.9,81.22 Z M235.43,74.66 L235.43,81 L233.99,81 L233.99,65.4 L238.31,65.4 C240.53,65.4 243.09,66.24 243.09,69.84 L243.09,70.24 C243.09,72.72 241.87,73.88 240.39,74.36 L243.09,81 L241.51,81 L239.03,74.64 C238.79,74.66 238.55,74.66 238.31,74.66 L235.43,74.66 Z M235.43,73.36 L238.35,73.36 C239.69,73.36 241.61,72.86 241.61,70.18 L241.61,69.88 C241.61,67.2 239.69,66.7 238.35,66.7 L235.43,66.7 L235.43,73.36 Z M252.820001,73.6 C252.820001,78.04 254.000001,79.92 256.620001,79.92 L256.760001,79.92 C259.100001,79.92 260.080001,78.5 260.080001,75.92 L261.560001,75.92 L261.560001,76.12 C261.560001,79.4 259.960001,81.22 256.640001,81.22 C253.060001,81.22 251.340001,79 251.340001,73.6 L251.340001,72.8 C251.340001,67.4 253.060001,65.18 256.640001,65.18 C259.960001,65.18 261.560001,67 261.560001,70.52 L261.560001,71.08 L260.080001,71.08 C260.080001,67.86 259.100001,66.48 256.760001,66.48 L256.620001,66.48 C254.020001,66.48 252.820001,68.36 252.820001,72.8 L252.820001,73.6 Z M278.630001,65.4 L280.070001,65.4 L280.070001,81 L278.630001,81 L278.630001,73.68 L271.690001,73.68 L271.690001,81 L270.250001,81 L270.250001,65.4 L271.690001,65.4 L271.690001,72.4 L278.630001,72.4 L278.630001,65.4 Z" id="community-church"></path>
    </g>
    <g id="icon">
      <mask id="mask-2" fill="white">
        <use xlink:href="#path-1"></use>
      </mask>
      <use id="mask" fill="#FFFFFF" xlink:href="#path-1"></use>
      <g id="circles" mask="url(#mask-2)" opacity="0.800000012">
        <g transform="translate(-40.000000, -40.000000)">
          <circle id="bottom-left" fill="#FFCB6D" cx="50" cy="130" r="50"></circle>
          <circle id="bottom-right" fill="#19BDC6" cx="130" cy="130" r="50"></circle>
          <circle id="top-right" fill="#05809E" cx="130" cy="50" r="50"></circle>
          <circle id="top-left" fill="#2C5FB1" cx="50" cy="50" r="50"></circle>
        </g>
      </g>
    </g>
  </g>
</svg>
